<svg width="641" height="406" viewBox="0 0 641 406" fill="none" xmlns="http://www.w3.org/2000/svg">
<path d="M635.528 361.925C631.352 351.321 607.05 358.237 616.06 328.468C620.736 313.017 605.496 303.033 605.496 303.033C605.496 303.033 579.257 293.193 591.902 262.265C604.547 231.337 560.474 226.187 548.685 228.834C553.492 218.995 557.576 172.787 524.395 176.634C491.202 180.48 489.977 144.02 473.841 144.362C442.755 145.021 455.953 123.485 446.865 116.596C437.776 109.707 423.945 107.625 419.401 120.402C419.401 120.402 423.669 166.979 441.24 207.272C453.833 236.145 498.723 270.247 451.633 266.414C404.543 262.581 404.187 262.357 404.187 262.357C404.187 262.357 292.831 410.806 345.269 399.57C397.707 388.335 469.876 348.977 492.532 316.969C515.188 284.961 522.275 323.015 546.682 342.917C580.758 370.697 624.463 387.36 624.463 387.36C637.991 386.425 639.716 372.541 635.528 361.938V361.925Z" fill="#C7E2D8" stroke="black" stroke-width="5" stroke-linecap="round" stroke-linejoin="round"/>
<path d="M345.861 189.556C368.978 178.28 380.833 157.811 380.833 133.495C380.833 78.2123 324.154 25.4847 268.871 25.4847C213.588 25.4847 160.86 90.0671 160.86 145.35C160.86 173.486 172.715 191.452 199.072 197.314C154.287 230.863 115.812 299.661 141.102 346.224C170.081 399.57 203.972 402.205 280.726 402.205C357.479 402.205 384.785 414.06 419.032 346.224C444.902 294.984 399.142 220.418 345.861 189.556Z" fill="#EFF8F5" stroke="black" stroke-width="5" stroke-linecap="round" stroke-linejoin="round"/>
<path d="M172.715 376.651C195.279 400.4 235.599 392.642 283.36 396.923C386.102 406.143 420.139 375.044 424.301 316.573C427.607 270.168 370.717 210.275 368.439 214.793C406.967 247.776 446.694 366.627 279.409 333.697C241.039 326.15 196.425 335.014 172.715 376.651Z" fill="#C7E2D8"/>
<path d="M374.129 132.679C374.01 88.6973 337.352 51.8156 316.277 45.2296C359.745 84.7457 367.648 129.531 341.304 183.536C336.747 192.862 374.234 172.998 374.129 132.679Z" fill="#C7E2D8"/>
<path d="M311.048 128.371C313.944 128.371 316.291 126.024 316.291 123.129C316.291 120.234 313.944 117.886 311.048 117.886C308.153 117.886 305.806 120.234 305.806 123.129C305.806 126.024 308.153 128.371 311.048 128.371Z" fill="black"/>
<path d="M266.803 132.007C266.803 134.905 264.459 137.249 261.561 137.249C258.663 137.249 256.318 134.905 256.318 132.007C256.318 129.109 258.663 129.386 261.561 129.386C264.459 129.386 266.803 129.109 266.803 132.007Z" fill="black" stroke="black" stroke-miterlimit="10"/>
<path d="M214.985 128.371C217.88 128.371 220.227 126.024 220.227 123.129C220.227 120.234 217.88 117.886 214.985 117.886C212.089 117.886 209.742 120.234 209.742 123.129C209.742 126.024 212.089 128.371 214.985 128.371Z" fill="black"/>
<path d="M311.773 141.425C310.614 152.885 291.699 150.803 275.154 145.679C265.947 142.821 256.002 142.755 246.742 145.429C230.488 150.132 211.995 149.974 212.469 141.425" stroke="black" stroke-width="4" stroke-linecap="round" stroke-linejoin="round"/>
<path d="M293.898 64.9876L266.553 3L237.495 62.2478" fill="#EFF8F5"/>
<path d="M293.898 64.9876L266.553 3L237.495 62.2478" stroke="black" stroke-width="5" stroke-linecap="round" stroke-linejoin="round"/>
<path d="M518.758 179.044C490.398 182.324 489.344 151.172 475.553 151.462C448.985 152.028 445.192 127.594 445.376 126.896C448.011 116.359 429.504 109.39 425.618 120.31C425.618 120.31 432.678 170.785 447.694 205.23C451.83 214.714 460.037 224.857 466.307 233.563C477.793 251.714 499.579 238.977 516.189 222.262C530.007 208.352 540.254 191.703 537.989 187.817C534.498 181.837 528.518 177.911 518.771 179.031L518.758 179.044Z" fill="#EFF8F5"/>
<path d="M340.369 275.332C340.369 275.332 377.791 410.872 415.647 392.602C415.647 392.602 431.414 390.245 437.592 358.421C443.783 326.597 464.99 333.671 464.99 333.671C464.99 333.671 482.667 333.671 487.092 318.641C495.602 289.703 511.645 308.236 520.681 301.847C529.717 295.459 535.71 283.288 525.225 275.332C525.225 275.332 480.902 265.611 438.474 270.023C408.073 273.185 380.728 262.278 380.728 262.278" fill="#EFF8F5"/>
<path d="M340.369 275.332C340.369 275.332 377.791 410.872 415.647 392.602C415.647 392.602 431.414 390.245 437.592 358.421C443.783 326.597 464.99 333.671 464.99 333.671C464.99 333.671 482.667 333.671 487.092 318.641C495.602 289.703 511.645 308.236 520.681 301.847C529.717 295.459 535.71 283.288 525.225 275.332C525.225 275.332 480.902 265.611 438.474 270.023C408.073 273.185 380.728 262.278 380.728 262.278" stroke="black" stroke-width="5" stroke-linecap="round" stroke-linejoin="round"/>
<path d="M193.409 275.332C193.409 275.332 155.987 410.872 118.13 392.602C118.13 392.602 102.364 390.245 96.1859 358.421C89.995 326.597 68.788 333.671 68.788 333.671C68.788 333.671 51.1112 333.671 46.6854 318.641C38.1762 289.703 22.1327 308.236 13.0967 301.847C4.06067 295.459 -1.9326 283.288 8.55234 275.332C8.55234 275.332 52.8762 265.611 95.3033 270.023C125.704 273.185 153.05 262.278 153.05 262.278" fill="#EFF8F5"/>
<path d="M193.409 275.332C193.409 275.332 155.987 410.872 118.13 392.602C118.13 392.602 102.364 390.245 96.1859 358.421C89.995 326.597 68.788 333.671 68.788 333.671C68.788 333.671 51.1112 333.671 46.6854 318.641C38.1762 289.703 22.1327 308.236 13.0967 301.847C4.06067 295.459 -1.9326 283.288 8.55234 275.332C8.55234 275.332 52.8762 265.611 95.3033 270.023C125.704 273.185 153.05 262.278 153.05 262.278" stroke="black" stroke-width="5" stroke-linecap="round" stroke-linejoin="round"/>
<path d="M123.123 318.207C103.826 329.983 94.8028 320.525 87.3342 329.706C90.838 333.5 94.3549 342.654 96.1727 352.019C102.364 383.843 118.117 386.201 118.117 386.201C151.232 405.103 198.506 272.197 123.109 318.194L123.123 318.207Z" fill="#C7E2D8"/>
<path d="M408.85 318.207C428.147 329.983 437.17 320.525 444.639 329.706C441.135 333.5 437.618 342.654 435.8 352.019C429.61 383.843 413.856 386.201 413.856 386.201C380.741 405.103 333.467 272.197 408.864 318.194L408.85 318.207Z" fill="#C7E2D8"/>
<path d="M226.339 243.851C222.401 256.72 210.48 264.478 199.692 261.185C188.904 257.892 183.359 244.786 187.284 231.917C191.209 219.048 215.577 199.935 226.352 203.228C237.127 206.521 230.264 230.982 226.326 243.851H226.339Z" fill="white"/>
<path d="M69.4202 304.35C56.472 306.023 45.3944 302.888 44.6831 297.355C43.9718 291.823 53.8903 285.988 66.8384 284.315C79.7865 282.642 105.353 288.188 106.065 293.72C106.776 299.252 82.3683 302.69 69.4202 304.35Z" fill="white"/>
<path d="M108.647 328.758C101.205 335.001 92.2741 336.608 88.6781 332.34C85.0953 328.073 88.2039 319.537 95.6461 313.294C103.088 307.05 122.754 301.966 126.337 306.233C129.92 310.501 116.076 322.514 108.634 328.771L108.647 328.758Z" fill="white"/>
<path d="M462.54 303.072C475.488 304.745 486.565 301.61 487.277 296.078C487.988 290.545 478.07 284.71 465.121 283.037C452.173 281.365 426.606 286.91 425.895 292.442C425.184 297.975 449.592 301.412 462.54 303.072Z" fill="white"/>
<path d="M423.313 327.48C430.755 333.723 439.686 335.33 443.282 331.063C446.865 326.795 443.756 318.259 436.314 312.016C428.872 305.772 409.206 300.688 405.623 304.956C402.04 309.223 415.884 321.236 423.326 327.493L423.313 327.48Z" fill="white"/>
<path d="M218.396 95.7048C216.262 102.699 209.781 106.914 203.92 105.123C198.058 103.331 195.042 96.2185 197.176 89.2241C199.309 82.2298 212.547 71.8502 218.409 73.6416C224.27 75.433 220.53 88.7236 218.409 95.718L218.396 95.7048Z" fill="white"/>
</svg>
