<svg width="454" height="404" viewBox="0 0 454 404" fill="none" xmlns="http://www.w3.org/2000/svg">
<path d="M106.717 215.049C106.717 215.049 49.1276 220.13 54.2467 285.091C59.3658 350.052 118.875 344.306 118.875 344.306C89.4404 381.42 127.834 394.217 144.471 341.747C152.827 315.383 186.703 329.909 186.703 329.909C186.703 329.909 197.581 300.602 186.703 288.559" fill="#F9C295"/>
<path d="M106.717 215.049C106.717 215.049 49.1276 220.13 54.2467 285.091C59.3658 350.052 118.875 344.306 118.875 344.306C89.4404 381.42 127.834 394.217 144.471 341.747C152.827 315.383 186.703 329.909 186.703 329.909C186.703 329.909 197.581 300.602 186.703 288.559" stroke="black" stroke-width="3.95469" stroke-linecap="round" stroke-linejoin="round"/>
<path d="M78.9936 265.311C82.8559 255.857 81.9822 246.556 77.0421 244.538C72.1021 242.52 64.9664 248.549 61.1041 258.003C57.2418 267.458 58.1155 276.759 63.0556 278.777C67.9956 280.795 75.1313 274.766 78.9936 265.311Z" fill="#F9D9C0"/>
<path d="M248.772 118.427C248.772 118.427 288.368 116.597 320.234 61.4896C324.176 54.6812 333.48 50.9443 341.043 53.1199C373.229 62.3855 397.993 91.0907 407.643 125.427C407.975 126.617 406.491 127.462 405.62 126.592C398.339 119.271 379.884 103.85 367.79 120.986C357.143 136.075 351.422 143.766 348.901 147.081C348.197 148.015 346.751 147.861 346.252 146.799C342.003 137.854 325.865 121.434 300.602 128.025C288.585 131.16 273.292 145.686 267.328 152.341C261.019 159.379 255.555 134.667 251.907 125.939L248.772 118.427Z" fill="#94F7E4" stroke="black" stroke-width="3.16375" stroke-linecap="round" stroke-linejoin="round"/>
<path d="M326.403 82.1452C330.088 75.6055 339.123 71.0752 345.842 74.1082C366.178 83.3098 390.186 102.43 404.264 121.626C399.145 103.709 376.109 64.0364 340.275 55.078C333.121 53.2863 327.004 55.5259 321.079 65.3162C291.644 113.947 259.65 118.388 259.65 118.388L262.58 125.606C263.566 128.051 264.705 131.788 265.972 135.704C277.81 132.709 304.135 121.754 326.415 82.1452H326.403Z" fill="#F9C295"/>
<path d="M248.772 118.427C248.772 118.427 288.368 116.597 320.234 61.4896C324.176 54.6812 333.48 50.9443 341.043 53.1199C373.229 62.3855 397.993 91.0907 407.643 125.427C407.975 126.617 406.491 127.462 405.62 126.592C398.339 119.271 379.884 103.85 367.79 120.986C357.143 136.075 354.775 148.924 346.674 147.222C336.986 145.187 325.878 121.434 300.602 128.025C288.585 131.16 273.292 145.686 267.328 152.341C261.019 159.379 255.555 134.667 251.907 125.939L248.772 118.427Z" fill="#BEE5DF" stroke="black" stroke-width="3.95469" stroke-linecap="round" stroke-linejoin="round"/>
<path d="M326.403 82.1451C330.088 75.6055 339.123 71.0751 345.842 74.1082C366.178 83.3097 390.186 102.43 404.264 121.626C399.145 103.709 376.109 64.0364 340.275 55.078C333.121 53.2863 327.004 55.5259 321.079 65.3162C291.644 113.947 259.65 118.388 259.65 118.388L262.58 125.606C263.566 128.051 264.705 131.787 265.972 135.704C277.81 132.709 304.135 121.754 326.415 82.1451H326.403Z" fill="#F9C295"/>
<path d="M104.797 118.427C104.797 118.427 79.1761 116.597 58.5718 61.4896C56.0251 54.6812 49.9974 50.9443 45.1086 53.1199C24.2867 62.3855 8.27681 91.0907 2.03152 125.427C1.81396 126.617 2.77379 127.462 3.33689 126.592C8.04645 119.271 19.9867 103.85 27.8061 120.986C34.6913 136.075 35.6767 145.942 41.73 146.799C50.9956 148.105 54.9117 121.434 71.2544 128.025C79.0354 131.16 88.9152 145.686 92.7801 152.341C96.8626 159.379 100.395 134.667 102.75 125.939L104.784 118.427H104.797Z" fill="#BEE5DF" stroke="black" stroke-width="3.95469" stroke-linecap="round" stroke-linejoin="round"/>
<path d="M54.5791 82.1451C52.1987 75.6055 46.3501 71.0751 41.9989 74.1082C28.8429 83.3097 13.3192 102.43 4.20728 121.626C7.52188 103.709 22.4184 64.0364 45.5951 55.078C50.2151 53.2863 54.1823 55.5259 58.0089 65.3162C77.0519 113.947 97.7458 118.388 97.7458 118.388L95.8517 125.606C95.2118 128.051 94.4696 131.787 93.6633 135.704C86.0103 132.709 68.9765 121.754 54.5663 82.1451H54.5791Z" fill="#F9C295"/>
<path d="M127.206 52.5056C127.206 52.5056 92.6526 16.2497 66.4172 37.5835C40.1819 58.9173 42.1272 23.7236 42.1272 23.7236" stroke="#FFEDCC" stroke-width="3.16375" stroke-miterlimit="10" stroke-linecap="round"/>
<path d="M90.7201 117.787C101.931 -3.13881 222.537 -12.7499 253.609 91.3211C262.44 120.884 262.76 151.88 278.207 178.589L314.68 222.741C340.954 245.495 383.455 235.219 443.54 189.134C447.175 186.344 452.422 189.224 451.948 193.78C445.332 258.331 413.658 313.464 326.838 342.4C203.98 382.072 51.687 351.358 72.1634 193.946C73.4048 184.437 89.7474 128.23 90.7201 117.8V117.787Z" fill="#F9C295" stroke="black" stroke-width="3.95469" stroke-linecap="round" stroke-linejoin="round"/>
<path d="M143.234 53.2172C148.411 48.9642 150.357 42.7758 147.58 39.395C144.803 36.0143 138.355 36.7213 133.177 40.9743C128 45.2273 126.053 51.4157 128.83 54.7964C131.607 58.1772 138.056 57.4702 143.234 53.2172Z" fill="#F9D9C0"/>
<path d="M124.405 64.6405C126.547 62.6568 127.235 59.9179 125.943 58.5231C124.651 57.1283 121.868 57.6057 119.726 59.5894C117.585 61.5732 116.896 64.312 118.188 65.7068C119.48 67.1016 122.264 66.6242 124.405 64.6405Z" fill="#F9D9C0"/>
<path d="M362.057 325.225C333.531 324.188 292.424 337.6 261.953 318.98C192.423 276.491 186.639 130.444 145.763 128.038C102.25 125.478 76.6551 238.098 85.6135 283.863C124.224 359.484 234.041 369.953 326.966 339.84C339.853 335.527 351.512 330.638 362.057 325.225Z" fill="#FDF4DC"/>
<path d="M122.356 156.372C135.473 160.39 148.604 160.39 161.721 156.372" stroke="#F9D9C0" stroke-width="3.16375" stroke-linecap="round" stroke-linejoin="round"/>
<path d="M114.613 185.807C135.461 189.825 156.295 189.825 177.143 185.807" stroke="#F9D9C0" stroke-width="3.16375" stroke-linecap="round" stroke-linejoin="round"/>
<path d="M94.5593 231.098C126.208 237.202 157.857 237.202 189.506 231.098" stroke="#F9D9C0" stroke-width="3.16375" stroke-linecap="round" stroke-linejoin="round"/>
<path d="M91.9998 269.491C123.649 275.595 155.297 275.595 186.946 269.491" stroke="#F9D9C0" stroke-width="3.16375" stroke-linecap="round" stroke-linejoin="round"/>
<path d="M114.613 306.604C138.545 312.709 162.477 312.709 186.408 306.604" stroke="#F9D9C0" stroke-width="3.16375" stroke-linecap="round" stroke-linejoin="round"/>
<path d="M150.511 336.039C165.561 342.144 180.611 342.144 195.674 336.039" stroke="#F9D9C0" stroke-width="3.16375" stroke-linecap="round" stroke-linejoin="round"/>
<path d="M156.628 23.7236L163.487 5.42287C165.164 0.956468 171.435 0.828491 173.278 5.2309L181.059 23.7236" fill="#F9C295"/>
<path d="M156.628 23.7236L163.487 5.42287C165.164 0.956469 171.435 0.828491 173.278 5.2309L181.059 23.7236" stroke="black" stroke-width="3.95469" stroke-linecap="round" stroke-linejoin="round"/>
<path d="M248.772 233.427C248.772 233.427 191.182 238.738 196.301 306.566C201.42 374.394 252.611 369.275 252.611 369.275C214.858 398.07 257.09 426.224 280.126 367.355C313.4 358.397 335.95 322.102 328.757 310.188" fill="#F9C295"/>
<path d="M248.772 233.427C248.772 233.427 191.182 238.738 196.301 306.566C201.42 374.394 252.611 369.275 252.611 369.275C214.858 398.07 257.09 426.224 280.126 367.355C313.4 358.397 335.95 322.102 328.757 310.188" stroke="black" stroke-width="3.95469" stroke-linecap="round" stroke-linejoin="round"/>
<path d="M227.444 274.272C231.306 264.817 230.432 255.516 225.492 253.498C220.552 251.48 213.416 257.509 209.554 266.964C205.692 276.419 206.565 285.719 211.506 287.737C216.446 289.755 223.581 283.726 227.444 274.272Z" fill="#F9D9C0"/>
<path d="M177.104 158.1C152.789 201.612 154.068 237.074 160.467 242.385C166.866 247.696 179.024 254.082 193.421 235.526C207.819 216.969 225.736 216.969 235.974 197.773" fill="#F9C295"/>
<path d="M177.104 158.1C152.789 201.612 154.068 237.074 160.467 242.385C166.866 247.696 179.024 254.082 193.421 235.526C207.819 216.969 225.736 216.969 235.974 197.773" stroke="black" stroke-width="3.95469" stroke-linecap="round" stroke-linejoin="round"/>
<path d="M106.973 155.092C123.955 197.376 126.118 232.774 122.996 238.354C119.873 243.934 113.666 250.845 104.196 233.005C94.7255 215.152 92.2683 228.833 85.0376 210.161" fill="#F9C295"/>
<path d="M106.973 155.092C123.955 197.376 126.118 232.774 122.996 238.354C119.873 243.934 113.666 250.845 104.196 233.005C94.7255 215.152 92.2683 228.833 85.0376 210.161" stroke="black" stroke-width="3.95469" stroke-linecap="round" stroke-linejoin="round"/>
<path d="M181.584 90.9116C185.118 90.9116 187.983 88.0467 187.983 84.5127C187.983 80.9788 185.118 78.1139 181.584 78.1139C178.05 78.1139 175.185 80.9788 175.185 84.5127C175.185 88.0467 178.05 90.9116 181.584 90.9116Z" fill="black"/>
<path d="M125.274 90.9116C128.808 90.9116 131.673 88.0467 131.673 84.5127C131.673 80.9788 128.808 78.1139 125.274 78.1139C121.74 78.1139 118.875 80.9788 118.875 84.5127C118.875 88.0467 121.74 90.9116 125.274 90.9116Z" fill="black"/>
<path d="M139.773 100.983C147.311 106.973 154.849 106.973 162.387 100.983H139.773Z" fill="#F9C295"/>
<path d="M139.773 100.983C147.311 106.973 154.849 106.973 162.387 100.983" stroke="black" stroke-width="3.16375" stroke-linecap="round" stroke-linejoin="round"/>
<path d="M187.982 52.5056C187.982 52.5056 222.536 16.2497 248.772 37.5835C275.007 58.9173 273.062 23.7236 273.062 23.7236" stroke="#FFEDCC" stroke-width="3.16375" stroke-miterlimit="10" stroke-linecap="round"/>
</svg>
