<svg width="367" height="403" viewBox="0 0 367 403" fill="none" xmlns="http://www.w3.org/2000/svg">
<path d="M36.6518 121.499C36.6518 121.499 -4.67843 30.1124 6.03576 4.99752C7.24543 -18.5525 82.5229 48.5069 92.1233 53.3648C101.724 58.2226 155.784 7.55125 170.847 8.30009C182.051 10.9114 169.887 41.9018 169.887 41.9018C169.887 41.9018 217.919 4.78631 227.029 8.94332C236.14 13.1003 236.131 36.1415 236.131 36.1415C236.131 36.1415 248.775 36.1415 251.175 38.004C253.412 45.742 251.175 54.6608 251.175 54.6608C251.175 54.6608 311.015 13.1003 317.255 26.061C323.495 39.0217 322.439 121.499 322.439 121.499C332.885 134.479 339.816 185.909 355.177 222.391C340.776 236.792 339.499 267.58 333.096 263.673C328.996 261.177 362.857 291.514 362.857 291.514C362.857 291.514 389.739 327.996 273.573 355.838C273.573 355.838 273.573 400 239.011 400C239.011 400 233.894 390.611 230.37 382.719C230.37 382.719 218.264 391.811 217.093 385.81C215.922 379.81 219.493 373.579 219.493 373.579C219.493 373.579 207.492 377.88 205.572 373.579C203.652 369.278 152.606 381.759 97.8836 361.598L61.4018 383.679L52.7613 366.398L36.6517 369.518V357.259H23.9599L28.4433 343.088C27.5691 324.984 29.614 318.311 38.831 314.037C38.831 314.037 -21.9112 274.147 36.6518 121.499Z" fill="#924ECE"/>
<path d="M76.2654 121.823C81.1327 115.267 80.8127 106.785 75.5508 102.878C70.2888 98.972 62.0774 101.12 57.2102 107.676C52.3429 114.232 52.6629 122.714 57.9248 126.62C63.1868 130.527 71.3982 128.379 76.2654 121.823Z" fill="#B77DF4"/>
<path d="M50.7068 138.867C53.5117 138.867 55.7855 136.593 55.7855 133.788C55.7855 130.983 53.5117 128.709 50.7068 128.709C47.902 128.709 45.6282 130.983 45.6282 133.788C45.6282 136.593 47.902 138.867 50.7068 138.867Z" fill="#B77DF4"/>
<path d="M273.573 365.131C274.466 359.697 274.466 355.828 274.466 355.828C390.632 327.987 363.75 291.505 363.75 291.505C363.75 291.505 331.877 260.207 335.976 262.703C342.379 266.611 335.976 238.923 357.74 219.242C348.62 196.681 322.698 126.597 322.698 126.597C322.698 126.597 329.256 49.1368 318.148 26.0514C316.554 22.7392 311.437 22.9984 304.726 25.2065C319.655 63.9733 293.465 109.873 279.275 122.536C277.835 123.823 299.379 130.956 303.334 138.857C325.415 183.019 311.975 184.939 329.256 209.901C313.895 219.501 341.736 251.183 309.095 265.584C343.724 261.743 361.897 293.425 361.897 293.425C361.897 293.425 335.976 337.587 257.252 325.107L273.573 365.131Z" fill="#62397C"/>
<path d="M206.369 336.637C123.805 365.438 40.2807 328.956 17.2395 256.953C21.0797 306.875 38.831 314.037 38.831 314.037C30.0693 317.997 27.694 324.526 27.4833 343.088L23.9598 357.259H36.6517V369.518L52.7613 366.398L61.4018 383.679L97.8836 361.598C152.606 381.759 204.449 368.549 206.369 372.85" fill="#62397C"/>
<path d="M88.2831 53.3648C80.5259 49.4382 41.2407 3.49985 6.67896 5.41994C46.041 17.9006 69.1301 59.6915 70.0422 76.4636C70.0422 76.4636 84.4813 62.6869 91.8449 53.4128C90.3472 53.7872 89.1376 53.7968 88.2831 53.3648Z" fill="#62397C"/>
<path d="M155.65 49.9022C155.65 49.9022 176.771 49.9022 174.371 9.95137C168.131 9.95137 157.436 15.5869 155.65 16.1917C166.21 13.3115 162.37 37.3128 155.65 49.9022Z" fill="#62397C"/>
<path d="M250.225 54.6609C250.225 54.6609 252.462 45.742 250.225 38.004C246.855 33.9526 237.523 38.484 235.814 38.004C245.943 44.2923 232.464 65.039 229.42 70.7033C229.42 70.7033 246.999 58.5011 253.719 52.2991C251.511 53.7776 250.225 54.6705 250.225 54.6705V54.6609Z" fill="#62397C"/>
<path d="M216.93 45.742L235.171 38.0616C234.825 31.7157 242.851 6.37999 225.014 8.6649C226.607 17.2765 225.57 36.1415 216.93 45.742Z" fill="#62397C"/>
<path d="M58.0033 92.7844C26.2832 143.475 3.48209 205.619 18.8909 265.536C31.8899 317.33 73.4024 353.985 124.467 366.792C149.89 373.455 176.281 374.395 202.539 372.159C176.579 377.525 149.217 378.236 123.047 372.917C57.408 360.052 9.588 308.296 5.53659 240.997C2.04201 186.898 25.0448 134.508 58.0033 92.7844Z" fill="black"/>
<path d="M227.01 73.1034C227.01 73.1034 301.894 11.6603 317.255 26.061C332.616 40.4617 321.575 129.266 321.575 129.266" stroke="black" stroke-width="5" stroke-miterlimit="10" stroke-linecap="round"/>
<path d="M92.1233 53.3648C92.1233 53.3648 20.6957 -9.80643 6.03576 4.99752C-8.61458 19.8015 34.5204 122.546 34.5204 122.546" stroke="black" stroke-width="5" stroke-miterlimit="10" stroke-linecap="round"/>
<path d="M80.2285 64.0885C80.2285 64.0885 178.528 -8.98081 175.648 13.1003L169.887 41.9018" stroke="black" stroke-width="5" stroke-miterlimit="10" stroke-linecap="round"/>
<path d="M162.207 48.6221C162.207 48.6221 239.011 -8.98081 236.131 13.1003V36.1415" stroke="black" stroke-width="5" stroke-miterlimit="10" stroke-linecap="round"/>
<path d="M215.97 49.5822C215.97 49.5822 258.375 16.6717 252.615 50.7534" stroke="black" stroke-width="5" stroke-miterlimit="10" stroke-linecap="round"/>
<path d="M33.5603 313.596C28.76 320.316 25.8799 330.876 27.8 344.317C27.8 344.317 20.1196 354.839 23.9598 357.259C27.8 359.678 36.6516 357.259 36.6516 357.259C36.6516 357.259 33.9827 366.869 36.6516 369.518C39.3206 372.168 52.7612 366.398 52.7612 366.398C52.7612 366.398 57.7247 383.679 61.4017 383.679C68.122 383.679 97.0867 362.769 97.0867 362.769" stroke="black" stroke-width="5" stroke-miterlimit="10" stroke-linecap="round"/>
<path d="M323.178 124.677C333.941 146.97 342.379 184.68 342.379 184.68C342.379 184.68 364.758 217.591 355.791 222.391C349.1 229.803 344.78 237.003 344.78 237.003C346.124 241.659 339.384 260.236 335.169 263.673C347.727 276.154 362.963 291.515 362.963 291.515C378.208 331.837 273.294 355.838 273.294 355.838C273.294 355.838 275.09 368.318 267.918 382.719C260.746 397.12 247.296 400 241.017 400C234.739 400 232.943 382.719 232.943 382.719C232.943 382.719 220.386 388.479 217.899 385.839C215.413 383.199 217.899 373.579 217.899 373.579C217.899 373.579 209.633 375.999 206.043 373.579C202.452 371.16 206.043 357.921 206.043 357.921C203.739 352.602 204.123 345.21 206.043 336.637" stroke="black" stroke-width="5" stroke-miterlimit="10" stroke-linecap="round"/>
<path d="M72.5577 228.151C72.5577 228.151 91.2787 268.953 79.7197 274.867C79.7197 274.867 76.2059 275.242 72.5577 266.236C70.1576 260.313 73.0377 279.514 66.3174 280.474C59.5971 281.434 55.7569 262.233 56.2369 269.433C56.6785 276.106 50.9566 290.074 47.5964 284.794C42.1146 276.182 35.5958 273.754 34.1558 263.673" fill="#924ECE"/>
<path d="M72.5576 228.151C78.8363 239.009 87.8799 257.826 85.9214 270.518C85.4126 273.446 83.5885 276.547 80.6412 277.853C75.8889 278.496 72.6728 273.773 70.7815 270.173C70.3782 269.433 69.5718 267.609 69.399 267.187C70.7143 269.069 73.9496 268.685 74.7657 266.448C74.5161 269.289 74.4008 273.254 73.46 276.595C72.3175 281.655 67.6517 285.773 62.4002 282.893C58.0704 280.195 56.4479 275.626 54.643 271.392C54.5182 271.085 54.0478 269.904 53.9134 269.616C54.115 269.865 54.1054 269.923 54.5086 270.249C56.1119 271.584 58.9825 270.624 59.2609 268.406C59.4817 273.59 57.7344 279.053 55.0943 283.623C52.5501 288.202 47.8747 290.602 45.081 284.631C42.2392 279.715 37.1894 275.338 35.2021 269.654C34.5012 267.705 34.2036 265.66 34.146 263.663C35.1348 267.523 37.1221 270.864 39.9255 273.629C43.1129 276.797 46.6842 279.831 49.3148 283.604C49.7564 284.151 49.6604 283.728 49.2572 283.719C48.8443 283.738 49.2572 283.604 49.4972 283.258C50.4572 282.068 51.1869 280.291 51.7149 278.755C52.7325 275.597 53.5198 272.217 53.1454 268.925C53.107 268.176 53.0782 267.1 53.6734 266.188C54.9983 264.086 57.9648 264.422 59.0593 266.265C60.7778 269.376 62.0546 273.341 64.2723 275.952C64.8388 276.595 65.3668 277.143 65.8468 277.162C65.9428 277.075 66.0772 276.951 66.2308 276.691C67.6901 273.888 67.7285 269.808 68.0645 266.524C68.1989 265.449 68.2373 264.403 69.0054 263.26C70.0422 261.676 72.4903 261.35 73.8632 262.444C74.6217 262.934 75.2457 264.076 75.4761 264.681C76.5418 267.168 77.6746 270.23 79.9115 271.785C79.9307 271.805 79.9019 271.785 79.8827 271.785C79.8635 271.785 79.8155 271.776 79.7867 271.785C79.6427 271.785 79.5467 271.785 79.3835 271.805L78.3083 272.121C85.5566 267.417 74.7561 235.899 72.548 228.151H72.5576Z" fill="black"/>
<path d="M191.008 228.151C191.008 228.151 172.287 268.953 183.846 274.867C183.846 274.867 187.36 275.242 191.008 266.236C193.408 260.313 190.528 279.514 197.249 280.474C203.969 281.434 207.809 262.233 207.329 269.433C206.887 276.106 212.609 290.074 215.97 284.794C221.451 276.182 227.97 273.754 229.41 263.673" fill="#924ECE"/>
<path d="M191.008 228.151C188.829 235.793 177.99 267.456 185.248 272.121L184.173 271.805C184.01 271.785 183.904 271.785 183.77 271.785C183.741 271.785 183.693 271.785 183.674 271.785C183.654 271.785 183.626 271.785 183.645 271.785C183.645 271.785 183.722 271.747 183.789 271.699C185.91 270.086 187.053 267.139 188.08 264.691C188.311 264.086 188.925 262.943 189.693 262.454C191.133 261.321 193.639 261.715 194.647 263.414C195.338 264.576 195.357 265.478 195.492 266.534C195.837 269.827 195.866 273.898 197.325 276.701C197.479 276.96 197.604 277.095 197.709 277.171C198.18 277.152 198.718 276.605 199.284 275.971C201.127 273.754 202.548 270.336 203.815 267.561C204.036 267.1 204.324 266.476 204.718 265.987C206.091 264.134 209.297 264.374 210.181 266.812C210.517 267.753 210.411 268.3 210.411 268.944C210.046 272.237 210.833 275.616 211.841 278.775C212.446 280.474 213.253 282.538 214.482 283.719C214.482 283.738 214.424 283.719 214.299 283.738C214.174 283.738 214.021 283.805 213.973 283.853C213.867 283.949 214.04 283.911 214.242 283.623C214.549 283.2 214.866 282.778 215.192 282.365C217.669 279.111 220.818 276.48 223.631 273.648C226.434 270.883 228.431 267.542 229.41 263.683C229.391 267.753 227.865 271.862 225.445 275.146C223.036 278.496 220.424 281.415 218.485 284.65C215.691 290.602 211.054 288.25 208.472 283.642C205.831 279.082 204.084 273.61 204.305 268.435C204.593 270.672 207.454 271.613 209.057 270.278C209.46 269.952 209.46 269.885 209.652 269.645C209.518 269.923 209.048 271.113 208.923 271.421C207.128 275.654 205.495 280.224 201.166 282.922C195.914 285.802 191.248 281.684 190.106 276.624C189.165 273.283 189.04 269.309 188.8 266.476C189.607 268.713 192.861 269.097 194.167 267.216C193.984 267.648 193.188 269.443 192.784 270.201C190.893 273.802 187.667 278.525 182.925 277.882C179.977 276.576 178.153 273.475 177.644 270.547C175.676 257.865 184.72 239.048 191.008 228.18V228.151Z" fill="black"/>
<path d="M83.6077 201.904C93.1314 232.049 154.478 235.755 164.002 202.432C159.452 202.432 128.605 193.59 120.8 193.59C112.995 193.59 88.7439 201.904 83.6077 201.904Z" fill="#6D243D" stroke="black" stroke-width="4" stroke-linejoin="round"/>
<path d="M69.6773 193.59C75.6953 193.59 80.5739 188.711 80.5739 182.693C80.5739 176.675 75.6953 171.796 69.6773 171.796C63.6593 171.796 58.7808 176.675 58.7808 182.693C58.7808 188.711 63.6593 193.59 69.6773 193.59Z" fill="black"/>
<path d="M184.922 195.51C190.94 195.51 195.818 190.631 195.818 184.613C195.818 178.595 190.94 173.716 184.922 173.716C178.904 173.716 174.025 178.595 174.025 184.613C174.025 190.631 178.904 195.51 184.922 195.51Z" fill="black"/>
<path d="M103.183 211.427C103.183 211.427 60.5857 252.632 124.323 255.829C188.061 259.036 142.747 211.427 142.747 211.427C127.463 204.275 114.272 204.275 103.183 211.427Z" fill="#FF6683" stroke="black" stroke-width="4" stroke-linejoin="round"/>
<path d="M121.078 209.066C119.792 211.504 119.11 214.135 118.793 216.832C118.323 219.424 118.947 221.988 119.062 224.561L119.168 229.975C119.187 230.139 118.985 230.263 118.841 230.187C116.048 228.564 114.742 225.166 115.04 222.103C115.644 217.264 117.238 212.31 120.771 208.845C120.925 208.691 121.184 208.883 121.078 209.075V209.066Z" fill="#B7445F"/>
<path d="M110.365 252.152C110.365 252.152 140.126 247.631 152.607 228.151C165.087 249.272 147.806 259.228 110.365 252.152Z" fill="#B7445F"/>
</svg>
