<svg width="452" height="403" viewBox="0 0 452 403" fill="none" xmlns="http://www.w3.org/2000/svg">
<path d="M168.749 191.793L166.274 144.463C166.274 144.463 175.014 131.643 186.219 135.467L214.72 177.299" fill="#B0B0B0"/>
<path d="M168.749 191.793L166.274 144.463C166.274 144.463 175.014 131.643 186.219 135.467L214.72 177.299" stroke="black" stroke-width="5.91876" stroke-miterlimit="10"/>
<path d="M206.758 180.786L227.54 146.799C227.54 146.799 239.384 141.569 244.975 148.961L243.964 190.119" fill="#B0B0B0"/>
<path d="M206.758 180.786L227.54 146.799C227.54 146.799 239.384 141.569 244.975 148.961L243.964 190.119" stroke="black" stroke-width="5.91876" stroke-miterlimit="10"/>
<path d="M49.7268 59.7756C31.0714 3.60018 117.072 -14.7647 125.755 33.2861L49.7268 59.7756Z" fill="#ABD7FF"/>
<path d="M49.7268 59.7756C31.0714 3.60018 117.072 -14.7647 125.755 33.2861" stroke="black" stroke-width="5.91876" stroke-miterlimit="10"/>
<path d="M137.836 208.127L140.801 204.822L143.004 206.799C140.801 204.822 140.801 204.822 140.801 204.822L140.803 204.82L140.811 204.812L140.841 204.778L140.964 204.64C141.041 204.554 141.145 204.437 141.276 204.291C141.329 204.231 141.386 204.166 141.448 204.097C141.874 203.617 142.501 202.909 143.303 201.997C144.908 200.172 147.212 197.529 150.007 194.264C155.599 187.733 163.147 178.721 170.982 168.791C178.821 158.855 186.922 148.031 193.63 137.872C200.379 127.649 205.565 118.324 207.758 111.334C212.141 97.3628 210.501 80.6623 200.516 65.8166C190.537 50.9819 172.054 37.7651 142.366 31.2128L142.008 31.1338L141.704 30.9818C141.701 30.9805 141.697 30.9788 141.693 30.9769C141.664 30.9639 141.601 30.9366 141.505 30.8982C141.311 30.8213 140.979 30.6994 140.503 30.5572C139.551 30.2732 138.017 29.9069 135.848 29.6592C131.512 29.164 124.609 29.1389 114.717 31.219C94.873 35.3919 72.5547 47.3889 64.5658 52.5247C62.3859 53.926 60.6549 54.7924 59.1604 55.4663C58.5633 55.7356 58.061 55.9512 57.6074 56.1459C56.8513 56.4705 56.2304 56.737 55.5306 57.0975C53.6242 58.0796 51.4516 59.6409 47.2228 64.7155C43.1739 69.5741 37.3567 79.8326 33.3522 93.1032C29.3605 106.331 27.2426 122.317 30.3293 138.648C30.875 141.536 32.7631 145.11 35.855 148.965C38.9075 152.77 42.9593 156.633 47.5024 160.095C56.7197 167.117 67.34 172.026 75.1699 172.026H77.7223L78.0972 174.551L75.1699 174.986C78.0972 174.551 78.0974 174.552 78.0975 174.554L78.0979 174.556L78.099 174.563L78.1017 174.582L78.1099 174.641C78.1137 174.669 78.1182 174.703 78.1233 174.742C78.1272 174.772 78.1314 174.805 78.1358 174.841C78.1568 175.01 78.1843 175.25 78.214 175.555C78.2733 176.164 78.3414 177.036 78.3824 178.126C78.4642 180.302 78.4386 183.364 78.0144 186.956C77.1679 194.125 74.7179 203.532 68.2428 212.207L68.0763 212.43L67.871 212.619C57.7254 221.919 44.3008 239.451 35.2193 259.869C26.123 280.321 21.6046 303.158 28.4791 323.333L29.335 325.845L26.9324 326.968L26.932 326.968L26.9314 326.968L26.9309 326.968L26.9219 326.973L26.8739 326.995C26.8291 327.017 26.7593 327.05 26.6662 327.096C26.4801 327.187 26.2011 327.325 25.844 327.509C25.1292 327.876 24.1041 328.421 22.8846 329.124C20.4356 330.536 17.2495 332.558 14.2272 335.021C11.1812 337.504 8.44709 340.318 6.7475 343.281C5.07523 346.195 4.4925 349.076 5.35951 351.974C5.62177 352.851 6.57501 354.082 8.93375 355.482C11.2181 356.838 14.3937 358.098 18.28 359.24C26.0345 361.518 36.063 363.17 46.0866 364.353C56.0816 365.533 65.9475 366.232 73.3239 366.636C77.0095 366.838 80.0677 366.966 82.2022 367.044C83.2693 367.082 84.1053 367.109 84.673 367.125C84.8623 367.13 85.0217 367.135 85.15 367.138L85.3187 367.143L85.4819 367.147L85.5221 367.148L85.5316 367.148L85.534 367.148L86.8028 367.176L87.6532 368.111L87.6536 368.111L87.6548 368.112L87.6569 368.115L87.6645 368.123C87.6764 368.136 87.6975 368.158 87.728 368.19C87.789 368.255 87.8874 368.357 88.0231 368.494C88.2947 368.768 88.7159 369.181 89.2878 369.707C90.4318 370.759 92.1774 372.264 94.533 374.016C99.2445 377.519 106.39 382.008 116.039 385.853C135.295 393.525 164.681 398.697 204.852 388.109L205.427 387.957L206.016 388.039L254.319 394.781C254.312 393.491 254.22 391.785 253.927 389.704C253.178 384.395 251.115 376.609 245.774 367.052L242.088 360.456L137.836 208.127ZM137.836 208.127L142.027 209.592M137.836 208.127L142.027 209.592M391.498 337.422C388.747 338.513 388.748 338.514 388.748 338.515L388.748 338.516L388.75 338.519L388.754 338.529L388.767 338.561C388.777 338.588 388.792 338.625 388.812 338.671C388.85 338.765 388.905 338.898 388.976 339.065C389.119 339.399 389.327 339.874 389.593 340.449C390.125 341.597 390.901 343.167 391.876 344.849C393.73 348.046 396.653 352.276 400.392 354.271C419.658 364.552 431.478 371.008 438.735 376.48C442.323 379.186 444.637 381.537 446.153 383.848C447.638 386.109 448.447 388.465 448.827 391.326C448.824 391.333 448.82 391.341 448.815 391.352C448.798 391.383 448.769 391.432 448.72 391.497C448.501 391.786 448.012 392.236 447.059 392.777C445.151 393.86 442.093 394.914 437.974 395.859C429.799 397.734 418.289 398.994 405.64 399.595C380.342 400.799 351.321 399.336 336.426 395.329C324.763 391.065 320.089 384.333 318.18 378.917C317.201 376.138 316.917 373.608 316.879 371.781C316.86 370.87 316.902 370.143 316.946 369.66C316.955 369.566 316.963 369.482 316.971 369.408C316.984 369.29 316.996 369.197 317.006 369.13C317.013 369.076 317.019 369.038 317.022 369.02L317.023 369.016L317.023 369.013L317.024 369.009L317.024 369.005L317.924 364.056L313.151 365.691C299.968 370.209 284.095 369.568 271.273 367.683C264.907 366.747 259.386 365.519 255.461 364.525C253.499 364.029 251.94 363.592 250.877 363.281C250.672 363.221 250.485 363.166 250.318 363.116C250.051 363.036 249.833 362.969 249.667 362.918C249.531 362.876 249.429 362.844 249.363 362.823L249.291 362.8L249.275 362.795L249.273 362.794L249.272 362.794L391.498 337.422ZM391.498 337.422L388.747 338.513M391.498 337.422L388.747 338.513M142.027 209.592L376.029 291.428L388.641 338.192L388.685 338.356M142.027 209.592L388.685 338.356M388.685 338.356L388.747 338.513M388.685 338.356L388.747 338.513" fill="#ABD7FF" stroke="black" stroke-width="5.91876"/>
<path d="M114.004 143.963C95.4062 154.424 86.1076 143.963 64.0233 150.937C54.4341 153.971 57.0493 143.963 43.1013 146.288C38.8123 155.238 57.7467 168.767 79.1336 171.859C77.2041 181.355 72.5548 200.232 63.3724 212.541C51.2377 228.813 2.41976 288.406 31.478 324.287C40.7767 336.91 69.835 357.832 79.1336 357.832C79.1336 357.832 76.4486 351.788 67.5103 330.517C60.5828 314.047 59.9319 295.613 65.6389 278.689C83.8527 224.641 111.679 176.509 111.679 176.509C118.653 161.398 119.838 140.685 114.004 143.963Z" fill="#FFF1C5"/>
<path d="M25.6664 324.125C-12.6905 350.858 -0.799898 365.783 60.9548 368.491L86.6074 370.106" stroke="black" stroke-width="5.91876" stroke-miterlimit="10"/>
<path d="M86.6887 363.063C2.24533 342.071 17.2393 273.877 33.9071 250.537C57.1537 217.992 80.9816 199.976 76.3323 173.242" stroke="black" stroke-width="5.91876" stroke-miterlimit="10" stroke-linecap="round"/>
<path d="M111.098 315.407C111.098 315.407 57.3282 362.168 102.229 384.124C147.13 406.081 179.594 400.559 201.713 392.272C223.832 383.985 257.551 409.556 255.227 392.121C252.902 374.686 241.279 347.952 211.058 339.816" stroke="black" stroke-width="5.91876" stroke-miterlimit="10" stroke-linecap="round"/>
<path d="M360.999 337.491C360.999 337.491 505.105 392.725 425.508 399.676C305.788 410.137 308.694 373.524 323.804 349.115" stroke="black" stroke-width="5.91876" stroke-miterlimit="10" stroke-linecap="round"/>
<path d="M69.2074 61.7051L57.9792 15.6535C57.9792 15.6535 64.1861 1.4266 75.9024 3.10035L111.679 38.9118" fill="#ABD7FF"/>
<path d="M69.2074 61.7051L57.9792 15.6535C57.9792 15.6535 64.1861 1.4266 75.9024 3.10035L111.679 38.9118" stroke="black" stroke-width="5.91876" stroke-miterlimit="10" stroke-linecap="round"/>
<path d="M214.255 47.8385C202.387 43.224 179.908 67.2261 198.424 83.2314C233.724 113.743 284.866 28.8925 212.802 16.1068C146.107 16.688 158.428 73.9793 159.95 74.0025" fill="#ABD7FF"/>
<path d="M214.255 47.8385C202.387 43.224 179.908 67.2261 198.424 83.2314C233.724 113.743 284.866 28.8925 212.802 16.1068C146.107 16.688 158.428 73.9793 159.95 74.0025" stroke="black" stroke-width="5.91876" stroke-miterlimit="10" stroke-linecap="round"/>
<path d="M150.036 206.729C211.639 185.807 383.455 241.018 395.288 352.021" stroke="black" stroke-width="5.91876" stroke-miterlimit="10"/>
<path d="M272.406 206.16L307.625 141.232C307.625 141.232 324.141 135.467 336.892 153.448L328.268 229.116" fill="#B0B0B0"/>
<path d="M272.406 206.16L307.625 141.232C307.625 141.232 324.141 135.467 336.892 153.448L328.268 229.116" stroke="black" stroke-width="5.91876" stroke-miterlimit="10" stroke-linecap="round"/>
<path d="M180.559 189.058C168.482 193.408 160.861 205.888 161.85 219.228C164.472 254.493 174.848 321.231 215.788 328.466C284.303 340.573 275.392 299.97 304.278 308.111C332.73 316.125 340.685 344.877 376.492 319.975C377.325 319.393 394.846 330.478 395.746 330.001C399.701 327.907 427.02 316.753 403.156 276.708C402.656 275.859 385.969 250.748 385.38 249.957C376.048 237.396 284.814 151.525 180.548 189.058H180.559Z" fill="#B0B0B0" stroke="black" stroke-width="5.91876" stroke-miterlimit="10"/>
<path d="M150.441 219.249L150.441 219.25C151.966 238.835 155.714 265.144 164.71 287.441C173.734 309.808 187.698 327.363 209.25 331.005C218.36 332.54 226.707 333.311 234.061 333.312C246.869 333.31 255.971 330.989 262.846 327.908C269.746 324.816 274.543 320.905 278.808 317.417L278.809 317.416C284.429 312.823 288.452 309.612 294.827 309.612C296.939 309.612 299.143 309.955 301.542 310.595L301.55 310.597C310.731 313.076 317.902 317.688 324.444 321.897L324.58 321.984L324.581 321.985C333.054 327.438 341.024 332.486 351.317 332.486C358.832 332.486 367.203 329.735 376.904 323.693L378.33 322.805L379.824 323.574C381.64 324.51 384.208 325.915 386.23 327.021L386.77 327.317L386.772 327.318C391.247 329.769 393.745 331.114 395.386 331.859C396.917 332.554 397.41 332.591 397.903 332.591C398.36 332.591 398.883 332.466 399.288 332.264C399.379 332.218 399.477 332.171 399.562 332.129L399.589 332.116C399.687 332.069 399.781 332.023 399.88 331.973L399.905 331.961L399.93 331.949C403.716 330.143 414.113 325.11 417.588 313.195L417.588 313.194C420.547 303.069 417.745 290.298 408.167 274.956C408.166 274.956 408.166 274.955 408.164 274.953C408.158 274.943 408.14 274.915 408.103 274.861C408.056 274.79 407.993 274.696 407.912 274.577C407.751 274.339 407.531 274.018 407.26 273.623C406.718 272.833 405.977 271.76 405.103 270.497C403.355 267.972 401.08 264.694 398.801 261.419C396.522 258.144 394.242 254.873 392.485 252.362C391.607 251.106 390.861 250.042 390.312 249.263C390.037 248.873 389.814 248.557 389.649 248.326C389.566 248.21 389.5 248.118 389.452 248.051C389.395 247.973 389.38 247.953 389.387 247.962L391.731 246.155M150.441 219.249L371.247 290.234L371.541 290.396C373.039 291.218 374.981 292.285 376.415 293.024L377.791 293.733L379.158 293.008C382.22 291.383 387.268 288.06 389.121 281.702C391.305 274.232 388.332 264.66 381.944 254.422L381.927 254.394L381.909 254.367C381.436 253.645 374.852 244.162 370.051 237.279L370.051 237.279C369.235 236.109 369.406 234.509 370.463 233.538L370.472 233.53C371.004 233.037 371.694 232.784 372.39 232.784C373.05 232.784 373.682 233 374.207 233.44L374.213 233.445C382.5 240.359 387.516 245.545 389.391 247.967L391.731 246.155M150.441 219.249C149.289 204.511 158.15 190.927 171.932 186.188C175.82 184.854 179.77 183.655 184.038 182.51C184.323 182.438 184.57 182.409 184.789 182.409C185.826 182.409 186.807 182.98 187.309 183.932L187.311 183.937M150.441 219.249L187.311 183.937M391.731 246.155C389.662 243.482 384.455 238.135 376.109 231.173L410.677 273.389C410.003 272.308 392.475 247.12 391.731 246.155ZM187.311 183.937C187.932 185.11 187.659 186.555 186.651 187.421L186.647 187.424M187.311 183.937L186.647 187.424M186.647 187.424C181.487 191.868 178.744 198.578 179.282 205.392C180.207 217.3 182.629 237.405 188.932 255.293C195.153 272.95 205.617 289.705 223.386 292.707L223.387 292.708M186.647 187.424L223.387 292.708M223.387 292.708C230.54 293.913 237.136 294.539 242.964 294.539C252.276 294.539 259.005 292.984 264.313 290.641C269.558 288.326 273.256 285.301 276.455 282.686L276.523 282.631L276.523 282.63M223.387 292.708L276.523 282.63M276.523 282.63C281.534 278.532 285.939 275.023 293.014 275.023M276.523 282.63L293.014 275.023M293.014 275.023C295.129 275.023 297.369 275.337 299.909 276.015M293.014 275.023L299.909 276.015M299.909 276.015C308.198 278.253 314.472 282.274 320.334 286.038C320.479 286.131 320.623 286.224 320.768 286.317C326.802 290.2 332.498 293.865 339.542 293.865C345.629 293.865 352.307 291.138 359.807 286.156C360.276 285.848 360.905 285.658 361.475 285.658C361.97 285.658 362.411 285.693 363.716 286.276C365.153 286.918 367.32 288.083 371.245 290.233L299.909 276.015Z" fill="#B0B0B0" stroke="black" stroke-width="5.91876"/>
<path d="M225.727 216.702L258.028 168.93C258.028 168.93 275.928 162.886 283.995 174.823L280.996 236.334" fill="#B0B0B0"/>
<path d="M225.727 216.702L258.028 168.93C258.028 168.93 275.928 162.886 283.995 174.823L280.996 236.334" stroke="black" stroke-width="5.91876" stroke-miterlimit="10" stroke-linecap="round"/>
<path d="M337.438 222.909L377.248 197.186C377.248 197.186 392.731 198.384 394.997 209.995L372.924 255.547" fill="#B0B0B0"/>
<path d="M337.438 222.909L377.248 197.186C377.248 197.186 392.731 198.384 394.997 209.995L372.924 255.547" stroke="black" stroke-width="5.91876" stroke-miterlimit="10" stroke-linecap="round"/>
<path d="M243.813 364.516C243.813 364.516 288.714 381.474 314.099 368.491" stroke="black" stroke-width="5.91876" stroke-miterlimit="10"/>
<path d="M94.2439 343.884C94.2439 343.884 81.4583 364.806 98.8932 376.429C133.089 399.223 164.158 395.155 190.717 390.377C220.764 384.973 225.587 384.566 244.185 392.702C265.548 402.047 240.419 376.151 212.081 373.384C183.743 370.618 167.436 381.962 139.552 373.384C111.667 364.806 94.2323 343.884 94.2323 343.884H94.2439Z" fill="#FFF1C5"/>
<path d="M32.6404 340.397C39.8004 345.07 25.864 361.726 9.3938 350.858C15.2055 360.157 43.1014 362.482 70.9973 363.644C56.0149 359.599 43.4733 351.439 32.6404 340.397Z" fill="#FFF1C5"/>
<path d="M118.478 133.049C121.784 133.049 124.464 130.369 124.464 127.063C124.464 123.757 121.784 121.077 118.478 121.077C115.172 121.077 112.492 123.757 112.492 127.063C112.492 130.369 115.172 133.049 118.478 133.049Z" fill="black"/>
<path d="M144.375 277.666C147.141 287.046 144.038 297.833 137.436 301.773C130.834 305.702 116.77 297.472 114.003 288.092C111.237 278.712 119.025 268.774 125.627 264.846C132.229 260.917 141.609 268.286 144.375 277.666Z" fill="#85B7DD"/>
<path d="M143.236 303.47C147.63 302.005 152.814 303.354 154.813 306.48C156.824 309.607 153.221 316.488 148.827 317.953C144.433 319.417 139.563 315.791 137.552 312.676C135.542 309.561 138.843 304.934 143.225 303.47H143.236Z" fill="#85B7DD"/>
<path d="M347.155 355.473C353.351 356.321 358.825 360.947 359.395 365.829C359.964 370.711 351.479 376.755 345.284 375.906C339.089 375.058 335.346 367.921 334.777 363.039C334.207 358.158 340.972 354.624 347.155 355.473Z" fill="#85B7DD"/>
<path d="M361.894 362.9C362.196 359.959 364.335 357.286 366.683 356.937C369.03 356.588 372.099 360.482 371.797 363.423C371.495 366.364 368.112 368.258 365.764 368.607C363.416 368.956 361.592 365.829 361.882 362.888L361.894 362.9Z" fill="#85B7DD"/>
<path d="M357.279 376.174C357.756 374.07 360.976 372.141 364.474 371.873C367.973 371.606 372.529 374.361 372.053 376.464C371.576 378.568 366.508 379.951 363.01 380.219C359.511 380.486 356.803 378.266 357.279 376.174Z" fill="#85B7DD"/>
<path d="M131.613 38.4585C136.006 36.9939 141.19 38.3422 143.19 41.4689C145.2 44.5956 141.597 51.4766 137.204 52.9411C132.81 54.4056 127.94 50.7792 125.929 47.6641C123.918 44.5491 127.219 39.923 131.601 38.4585H131.613Z" fill="#85B7DD"/>
<path d="M120.28 49.0938C122.756 50.2677 124.348 53.3479 123.837 55.9632C123.325 58.5784 118.827 60.752 116.351 59.578C113.876 58.4041 113.387 54.2197 113.899 51.5928C114.41 48.9659 117.793 47.9082 120.268 49.0822L120.28 49.0938Z" fill="#85B7DD"/>
<path d="M37.1154 127.237C40.4214 127.237 43.1014 124.557 43.1014 121.251C43.1014 117.945 40.4214 115.265 37.1154 115.265C33.8094 115.265 31.1294 117.945 31.1294 121.251C31.1294 124.557 33.8094 127.237 37.1154 127.237Z" fill="black"/>
<path d="M37.2898 140.476C38.8241 142.441 42.7644 145.939 48.5528 145.498C56.0847 144.916 56.5031 150.716 64.0234 150.937C73.9032 151.239 66.3481 145.126 101.148 148.589C108.331 149.298 113.202 146.114 114.004 143.963" stroke="black" stroke-width="4.73501" stroke-miterlimit="10" stroke-linecap="round"/>
<path d="M102.885 85.0963C111.275 81.4043 115.457 72.4574 112.226 65.1128C108.994 57.7681 99.5721 54.807 91.1816 58.4989C82.791 62.1908 78.609 71.1377 81.8407 78.4824C85.0724 85.8271 94.4941 88.7882 102.885 85.0963Z" fill="#C5E9FF"/>
<path d="M214.453 210.889C223.452 209.145 229.906 203.388 228.868 198.032C227.829 192.675 219.692 189.746 210.693 191.491C201.693 193.235 195.24 198.992 196.278 204.349C197.316 209.705 205.454 212.634 214.453 210.889Z" fill="#CCCCCC"/>
<path d="M57.6073 138.512L58.572 139.035" stroke="black" stroke-width="2.36751" stroke-miterlimit="10" stroke-linecap="round"/>
<path d="M65.4298 138.361L64.6975 139.186" stroke="black" stroke-width="2.36751" stroke-miterlimit="10" stroke-linecap="round"/>
</svg>
