<?xml version="1.0" encoding="UTF-8"?>
<svg id="Layer_2" data-name="Layer 2" xmlns="http://www.w3.org/2000/svg" viewBox="0 0 393.54 352.89">
  <defs>
    <style>
      .cls-1, .cls-2, .cls-3, .cls-4, .cls-5, .cls-6, .cls-7 {
        stroke: #000;
        stroke-miterlimit: 10;
      }

      .cls-1, .cls-2, .cls-3, .cls-4, .cls-7 {
        stroke-width: 10px;
      }

      .cls-1, .cls-2, .cls-8 {
        fill: #b0b0b0;
      }

      .cls-2, .cls-3, .cls-5, .cls-6, .cls-7 {
        stroke-linecap: round;
      }

      .cls-3, .cls-9 {
        fill: #abd7ff;
      }

      .cls-4, .cls-5, .cls-6, .cls-7 {
        fill: none;
      }

      .cls-5 {
        stroke-width: 2px;
      }

      .cls-6 {
        stroke-width: 4px;
      }

      .cls-10, .cls-11, .cls-12, .cls-9, .cls-8, .cls-13, .cls-14 {
        stroke-width: 0px;
      }

      .cls-11 {
        fill: #ccc;
      }

      .cls-12 {
        fill: #c5e9ff;
      }

      .cls-13 {
        fill: #85b7dd;
      }

      .cls-14 {
        fill: #fff1c5;
      }
    </style>
  </defs>
  <g id="Lapras">
    <g>
      <path class="cls-1" d="M147.01,167.46l-2.13-40.72s7.52-11.03,17.16-7.74l24.52,35.99"/>
      <path class="cls-1" d="M179.71,157.99l17.88-29.24s10.19-4.5,15,1.86l-.87,35.41"/>
      <path class="cls-9" d="M124.86,180.37s26.06-34.06,59.06-101.06c0,0-7-41-59.06-52.49,0,0-18.57-5.85-23.94-13.51-5.37-7.66-50.48-21.23-59,31l1.85,15.65s-23.85,33.15-18.35,62.25c8.38,12.14,21.24,19.23,40.5,19.1,0,0-4.11,30-14.56,44-10.44,14-52.44,65.27-27.44,96.14,0,0-24.64,21.26-7.82,28.56s59.26,10.86,59.26,10.86c0,0,33.17,36.45,103.36,17.95l41.38,7.39s7.18-22.4-8.5-30.15c0,0,36.63,11.59,60.47,3.42,0,0-3.7,19.91,19.07,22.87s91.94,6.5,90.85-1.77-12.95-27.87-18.01-30.57-25.33-17.26-25.33-17.26l-11.2-41.53-202.59-70.85Z"/>
      <path class="cls-14" d="M99.91,126.31c-16,9-24,0-43,6-8.25,2.61-6-6-18-4-3.69,7.7,12.6,19.34,31,22-1.66,8.17-5.66,24.41-13.56,35-10.44,14-52.44,65.27-27.44,96.14,8,10.86,33,28.86,41,28.86,0,0-2.31-5.2-10-23.5-5.96-14.17-6.52-30.03-1.61-44.59,15.67-46.5,39.61-87.91,39.61-87.91,6-13,7.02-30.82,2-28Z"/>
      <g id="lineart">
        <path class="cls-4" d="M44.61,53.88C28.56,5.55,102.55-10.25,110.02,31.09"/>
        <path class="cls-10" d="M61.76,177.75c1.5-6.75,3.91-13.38,3.12-19.94-1.12-6.02-6.01-8.27-11.75-11.35-5.06-2.47-10.88-4.66-16.35-6.69,0,0-1.68-.62-1.68-.62l.1.04s.08.02.04.01c-3.67-.86-7.23-2.63-9.99-5.46-6.41-6.53-7.21-16.18-6.59-24.61,2.3-32.89,16.95-64.71,49.22-77.58,15.14-6.66,31.48-10.59,48.08-10.91,46.43-1.37,89.28,28.98,69.1,79.1-3.89,9.55-9.45,18.23-15.78,26.24-5.99,7.46-12.73,14.94-18.64,22.42-11.03,14.17-23.22,29.53-20.77,48.25.33,2.74-1.62,5.23-4.36,5.57-2.7.33-5.16-1.56-5.55-4.24-.78-5.29-.73-10.83.28-16.16.98-5.34,2.86-10.39,5.14-15.06,6.8-13.53,16.43-25.02,25.86-36.63,14.23-16.74,29.72-37.13,26.73-60.17-2.47-17.61-18.28-29.37-34.8-34.05-22.01-6.35-46.27-3.52-67.45,4.89-4.1,1.71-8.6,3.68-12.44,5.85-23.48,13.41-34.13,43.81-34.11,69.75.25,5.53,2.4,11.34,8.21,12.66.42.12.91.25,1.32.4,1.05.37,4.06,1.6,5.15,2,4.57,1.82,9.17,3.69,13.78,6.03,4.97,2.59,9.82,5.56,13.04,10.67,4.94,7.74,1.87,17.31-2.42,24.46-1.26,2.19-2.67,4.26-4.2,6.24-.81,1.08-2.67.25-2.3-1.11h0Z"/>
        <path class="cls-4" d="M23.91,281.31c-33,23-22.77,35.84,30.36,38.17l22.07,1.39"/>
        <path class="cls-7" d="M76.41,314.81C3.76,296.75,14.57,238.39,28.91,218.31c20-28,44-41,40-64"/>
        <path class="cls-7" d="M97.41,273.81s-46.26,40.23-7.63,59.12,66.56,14.14,85.59,7.01,48.04,14.87,46.04-.13-12-38-38-45"/>
        <path class="cls-7" d="M312.41,292.81s123.98,47.52,55.5,53.5c-103,9-100.5-22.5-87.5-43.5"/>
        <path class="cls-3" d="M61.37,55.54l-9.66-39.62s5.34-12.24,15.42-10.8l30.78,30.81"/>
        <path class="cls-3" d="M186.16,43.61c-10.21-3.97-29.55,16.68-13.62,30.45,30.37,26.25,74.37-46.75,12.37-57.75-57.38.5-46.78,49.79-45.47,49.81"/>
        <path class="cls-4" d="M130.91,180.31c53-18,200.82,29.5,211,125"/>
      </g>
      <path class="cls-2" d="M236.19,179.82l30.3-55.86s14.21-4.96,25.18,10.51l-7.42,65.1"/>
      <path class="cls-1" d="M147.55,164.95c-10.87,3.74-17.73,14.47-16.84,25.94,2.36,30.32,11.7,87.7,48.55,93.92,61.67,10.41,53.65-24.5,79.65-17.5,25.61,6.89,32.77,31.61,65,10.2.75-.5,16.52,9.03,17.33,8.62,3.56-1.8,28.15-11.39,6.67-45.82-.45-.73-15.47-22.32-16-23-8.4-10.8-90.52-84.63-184.37-52.36Z"/>
      <g>
        <path class="cls-8" d="M203.21,291.76c-6.5,0-13.83-.68-21.78-2.02-39.71-6.71-50.07-64.57-52.71-98.46-1.08-13.82,7.23-26.59,20.2-31.05,3.41-1.17,6.87-2.22,10.6-3.22.43-.11.86-.17,1.29-.17,1.82,0,3.54,1,4.42,2.67,1.09,2.06.61,4.6-1.16,6.12-3.82,3.29-5.86,8.27-5.46,13.33,1.58,20.34,8.25,68.15,35.83,72.81,6.05,1.02,11.58,1.54,16.42,1.54,15.43,0,21.72-5.14,27.26-9.67,4.28-3.5,8.71-7.12,15.8-7.12,2.08,0,4.23.31,6.59.94,7.56,2.04,13.26,5.71,18.29,8.94,5.49,3.53,9.83,6.33,15.15,6.33,4.5,0,9.74-2.03,16.03-6.21.82-.54,1.85-.85,2.84-.85,1.75,0,2.95.59,9.63,4.25,1.33.73,3.11,1.71,4.39,2.37,2.45-1.3,6.02-3.73,7.32-8.19,1.56-5.33-.48-12.74-5.89-21.41-.38-.58-6.01-8.69-10.16-14.64-1.43-2.05-1.13-4.85.72-6.55.95-.88,2.17-1.32,3.38-1.32,1.14,0,2.27.38,3.2,1.16,7.18,5.99,11.66,10.59,13.44,12.89.64.83,15.72,22.5,16.3,23.43,8.41,13.47,11.23,25.24,8.39,34.96-3.33,11.42-13.27,16.16-16.54,17.72-.2.1-.37.18-.51.25-.7.35-1.54.55-2.33.55h0c-1.81,0-3.17-.67-10.8-4.85-1.81-.99-4.25-2.33-5.92-3.19-8.59,5.35-16.26,7.95-23.36,7.95-9.71,0-17.17-4.8-24.38-9.44-5.69-3.66-11.58-7.45-19.1-9.48-1.91-.51-3.58-.76-5.12-.76-4.45,0-7.24,2.11-12.17,6.14-7.35,6.01-17.42,14.25-40.12,14.25Z"/>
        <path class="cls-10" d="M160.81,161.84c-4.93,4.25-7.71,10.71-7.18,17.5,1.94,24.97,9.64,72.23,39.99,77.35,6.68,1.13,12.37,1.61,17.25,1.61,28.85,0,29.89-16.8,43.06-16.79,1.57,0,3.31.24,5.29.77,14.96,4.03,22.28,15.44,34.74,15.44,5.11,0,11.08-1.92,18.79-7.04.02-.01.04-.02.07-.02,1.18,0,13.03,7.13,14.14,7.13.02,0,.04,0,.06-.01,2.93-1.48,23.18-9.38,5.49-37.74-.26-.42-6.5-9.41-10.3-14.85,6.69,5.58,11.08,10.03,12.7,12.12.53.68,15.55,22.27,16,23,21.48,34.43-3.11,44.02-6.67,45.82-.02,0-.04.01-.07.01-1.35,0-15.74-8.66-17.17-8.66-.04,0-.07,0-.09.02-9.37,6.22-16.62,8.55-22.82,8.55-15.13,0-24.02-13.86-42.18-18.75-2.4-.65-4.51-.94-6.42-.94-15.99,0-17.25,20.39-52.29,20.39-5.93,0-12.84-.59-20.95-1.95-36.85-6.22-46.19-63.6-48.55-93.92-.89-11.46,5.97-22.2,16.84-25.94,3.44-1.18,6.86-2.21,10.26-3.11M160.81,151.84c-.85,0-1.72.11-2.57.34-3.84,1.02-7.42,2.11-10.94,3.32-15.12,5.2-24.81,20.07-23.56,36.17,1.23,15.75,4.3,38.74,11.97,58.79,4.39,11.48,9.89,20.91,16.34,28.03,8.06,8.9,17.67,14.35,28.55,16.18,8.23,1.39,15.84,2.09,22.61,2.09,24.48,0,35.79-9.25,43.28-15.38,4.63-3.79,6.35-5.01,9.01-5.01,1.07,0,2.36.2,3.82.59,6.77,1.82,12.07,5.24,17.69,8.85,7.82,5.03,15.91,10.24,27.09,10.24,7.34,0,15.08-2.37,23.51-7.22,1.15.62,2.36,1.28,3.36,1.83,7.86,4.31,9.98,5.47,13.2,5.47,1.59,0,3.17-.38,4.58-1.09.12-.06.25-.12.41-.2,10.1-4.82,16.56-11.83,19.18-20.83,3.25-11.15.24-24.27-8.95-39.01-.67-1.07-15.86-22.91-16.59-23.85-2.52-3.24-7.83-8.35-14.19-13.66-1.86-1.55-4.13-2.32-6.4-2.32-2.43,0-4.85.88-6.76,2.63-3.69,3.39-4.31,8.98-1.44,13.09,3.92,5.61,9.34,13.42,10.09,14.53,4.52,7.28,6.39,13.4,5.27,17.26-.47,1.6-1.49,2.82-2.74,3.8-.62-.34-1.23-.67-1.76-.97-6.82-3.74-8.88-4.87-12.03-4.87-2.01,0-3.95.58-5.6,1.68-5.37,3.57-9.83,5.38-13.27,5.38-3.67,0-6.95-2-12.44-5.53-5.07-3.26-11.38-7.33-19.7-9.57-2.78-.75-5.36-1.11-7.88-1.11h0c-8.88,0-14.47,4.57-18.96,8.25-5.37,4.39-10.45,8.55-24.1,8.55-4.57,0-9.81-.49-15.59-1.47-9.52-1.61-17.25-10-22.97-24.95-5.54-14.48-7.8-31.55-8.71-43.32-.27-3.48,1.13-6.9,3.74-9.15,3.53-3.04,4.49-8.12,2.31-12.24-1.76-3.34-5.2-5.33-8.84-5.33h0ZM160.81,171.84h0,0Z"/>
      </g>
      <path class="cls-2" d="M196.03,188.89l27.79-41.1s15.4-5.2,22.34,5.07l-2.58,52.92"/>
      <path class="cls-2" d="M292.14,194.23l34.25-22.13s13.32,1.03,15.27,11.02l-18.99,39.19"/>
      <path class="cls-4" d="M211.59,316.06s38.63,14.59,60.47,3.42"/>
      <path class="cls-14" d="M82.91,298.31s-11,18,4,28c29.42,19.61,56.15,16.11,79,12,25.85-4.65,30-5,46,2,18.38,8.04-3.24-14.24-27.62-16.62s-38.41,7.38-62.4,0-38.99-25.38-38.99-25.38Z"/>
      <path class="cls-14" d="M29.91,295.31c6.16,4.02-5.83,18.35-20,9,5,8,29,10,53,11-12.89-3.48-23.68-10.5-33-20Z"/>
      <circle class="cls-10" cx="103.76" cy="111.77" r="5.15"/>
      <path class="cls-13" d="M126.04,241.34c2.38,8.07-.29,17.35-5.97,20.74-5.68,3.38-17.78-3.7-20.16-11.77-2.38-8.07,4.32-16.62,10-20s13.75,2.96,16.13,11.03Z"/>
      <path class="cls-13" d="M125.06,263.54c3.78-1.26,8.24-.1,9.96,2.59,1.73,2.69-1.37,8.61-5.15,9.87s-7.97-1.86-9.7-4.54,1.11-6.66,4.88-7.92Z"/>
      <path class="cls-13" d="M300.5,308.28c5.33.73,10.04,4.71,10.53,8.91.49,4.2-6.81,9.4-12.14,8.67s-8.55-6.87-9.04-11.07,5.33-7.24,10.65-6.51Z"/>
      <path class="cls-13" d="M313.18,314.67c.26-2.53,2.1-4.83,4.12-5.13,2.02-.3,4.66,3.05,4.4,5.58s-3.17,4.16-5.19,4.46c-2.02.3-3.59-2.39-3.34-4.92Z"/>
      <path class="cls-13" d="M309.21,326.09c.41-1.81,3.18-3.47,6.19-3.7,3.01-.23,6.93,2.14,6.52,3.95s-4.77,3-7.78,3.23-5.34-1.68-4.93-3.48Z"/>
      <path class="cls-13" d="M115.06,35.54c3.78-1.26,8.24-.1,9.96,2.59,1.73,2.69-1.37,8.61-5.15,9.87s-7.97-1.86-9.7-4.54,1.11-6.66,4.88-7.92Z"/>
      <path class="cls-13" d="M105.31,44.69c2.13,1.01,3.5,3.66,3.06,5.91s-4.31,4.12-6.44,3.11-2.55-4.61-2.11-6.87,3.35-3.17,5.48-2.16Z"/>
      <circle class="cls-10" cx="33.76" cy="106.77" r="5.15"/>
      <path class="cls-6" d="M33.91,123.31c1.32,1.69,4.71,4.7,9.69,4.32,6.48-.5,6.84,4.49,13.31,4.68,8.5.26,2-5,31.94-2.02,6.18.61,10.37-2.13,11.06-3.98"/>
      <ellipse class="cls-12" cx="85.31" cy="64.22" rx="14.28" ry="12.5" transform="translate(-18.64 39.8) rotate(-23.75)"/>
      <ellipse class="cls-11" cx="184.7" cy="175.56" rx="14.28" ry="8.5" transform="translate(-30.02 38.34) rotate(-10.97)"/>
      <line class="cls-5" x1="51.39" y1="121.62" x2="52.22" y2="122.07"/>
      <line class="cls-5" x1="58.12" y1="121.49" x2="57.49" y2="122.2"/>
    </g>
  </g>
</svg>