<?xml version="1.0" encoding="UTF-8"?>
<svg id="Layer_1" data-name="Layer 1" xmlns="http://www.w3.org/2000/svg" viewBox="0 0 400.04 419.89">
  <defs>
    <style>
      .cls-1, .cls-2, .cls-3, .cls-4, .cls-5, .cls-6, .cls-7, .cls-8, .cls-9, .cls-10, .cls-11, .cls-12, .cls-13, .cls-14 {
        stroke: #000;
      }

      .cls-1, .cls-6, .cls-7, .cls-8, .cls-9, .cls-10, .cls-11, .cls-12, .cls-14 {
        stroke-linecap: round;
        stroke-linejoin: round;
      }

      .cls-1, .cls-11 {
        fill: none;
      }

      .cls-1, .cls-13, .cls-14 {
        stroke-width: 3.46px;
      }

      .cls-2 {
        stroke-width: 3.3px;
      }

      .cls-2, .cls-3, .cls-4, .cls-5, .cls-13 {
        stroke-miterlimit: 10;
      }

      .cls-2, .cls-3, .cls-12 {
        fill: #fada00;
      }

      .cls-3 {
        stroke-width: 2.75px;
      }

      .cls-4 {
        fill: #ffba33;
      }

      .cls-4, .cls-5, .cls-6, .cls-7, .cls-8, .cls-9, .cls-10, .cls-11, .cls-12 {
        stroke-width: 6.91px;
      }

      .cls-5, .cls-8 {
        fill: #93755a;
      }

      .cls-6 {
        fill: #97775e;
      }

      .cls-7 {
        fill: #6e5c4e;
      }

      .cls-9 {
        fill: #ffa900;
      }

      .cls-10, .cls-13 {
        fill: #e5b658;
      }

      .cls-15, .cls-16, .cls-17, .cls-18 {
        stroke-width: 0px;
      }

      .cls-16 {
        fill: #491619;
      }

      .cls-17 {
        fill: #451b17;
      }

      .cls-18 {
        fill: #fefefe;
      }

      .cls-14 {
        fill: #e6927d;
      }
    </style>
  </defs>
  <path class="cls-16" d="m65.89,283.3c-27.89-.8-23.5-17.13-23.5-17.13,11.55-27.49,42.23-33.86,42.23-33.86l-6.77-11.55c-43.42,15.54-49,37.85-49,37.85-13.54,33.86,35.06,41.83,35.06,41.83l1.99-17.13Z"/>
  <g>
    <path class="cls-7" d="m194.16,414.19s3.8,4.54,13.11-3.08c.9-.74,1.55-1.45,1.99-2.13,4.04-6.35-18.01-21.29-18.01-21.29"/>
    <g>
      <path class="cls-7" d="m191.05,400.52c1.88.83,8.62,8.45,5.59,12.7-.6.84-1.59,1.55-3.09,2.05-9,3-13.75-.75-13.75-.75-10.75-12.25-9.25-50.24-9.25-50.24l3.4-.74,29.06,11.61s.89,7.09.89,10.28,2.3,4.7,2.3,4.7c0,0,11.87,6.91,12.23,13.38.35,6.47-6.7,4.51-6.7,4.51,0,0-8.5-4-11.2-10.38"/>
      <path class="cls-7" d="m196.64,413.22s5.51,5.09,15.09-5.21"/>
    </g>
  </g>
  <g>
    <path class="cls-6" d="m47.7,106.16s55-.73,61.56-6.42c6.56-5.68,9.8-16.13-15.6-35.8-25.4-19.67-57.57-23.99-57.57-23.99,0,0-16.46-2.72-32.63-1.76l29.01,7.92,26.6,12.64s22.5,15.77,22.46,17.33,2.78,16.04,2.78,16.04l-20.54,7.86-16.07,6.17Z"/>
    <path class="cls-12" d="m47.7,106.16s45.01-6.27,50.61-13.75c5.6-7.48-28.96-31.83-49.79-39.6-20.82-7.77-12.95-4.96-12.95-4.96l15.67,18.12s11.37,16.58,11.33,20.63-.7,8.55-5.86,12.29c-5.17,3.74-9.01,7.28-9.01,7.28Z"/>
  </g>
  <g>
    <path class="cls-12" d="m255.69,241.09s23.49,11.74,31.46,10.07c7.97-1.68,38.59,0,40.69-54.53,2.1-54.53-22.23-82.21-22.23-82.21,0,0,30.2,10.07,44.46,26.01,0,0,7.97-19.5-38.17-88.5,0,0,117.86,58.51,75.5,184.76,0,0-20.97-36.07-28.52-41.1,0,0-12.16,61.24-65.01,68.79,0,0-16.38,1.36-34.83-7.5-18.44-8.86-3.34-15.78-3.34-15.78Z"/>
    <path class="cls-17" d="m255.69,241.09s16.85,12.88,37.7,11.36c0,0,4.17,2.84.76,3.98s-2.57-.91.08,2.13c2.65,3.03-.08.53-1.22,2.42-1.14,1.9-4.93-.19-4.55,1.71.38,1.9,5.39,1.68,5.39,1.68,0,0-20.37.79-37.43-7.75-17.06-8.53-.73-15.53-.73-15.53Z"/>
  </g>
  <path class="cls-5" d="m65.32,199.76c-1.02,1.19-2.73,1.37-4.04.5-5.82-3.83-23.38-10-27.97-18.46-8.27-15.21,6.59-18.12,6.55-19.21,0,0,8.65-6.07,34.01-2.82,21.5,2.76-1.14,31.34-8.54,39.98Z"/>
  <path class="cls-4" d="m256.3,278.08c1.28-11.35,1.49-21.44,1.51-23.04,0-.16,0-.27-.03-.44-.65-4.09-10.46-65.86-15.26-107.99-4.77-41.83-19.75-63.24-20.95-64.89-.06-.08-.1-.14-.16-.21-1.68-1.93-27.05-30.25-70.26-23.6-44.73,6.88-50.09,24.85-57.73,34.79-6.67,8.67-8.68,41.46-9.09,49.72-.04.91-.5,1.77-1.3,2.21-1.5.84-3.72,3.82-2.49,14.38.24,2.05-1.68,3.67-3.64,3.04l-2.49-.8s1.05,1.42,1.81,4.86c.28,1.26-.67,2.06-1.98,2.56-1.9.73-2.28,3.27-.78,4.64,4.53,4.15,4.29,6.94,4.29,11.15,0,3.41-4.19,4.18-7.23,4.29-1.58.06-2.75,1.39-2.71,2.97.13,4.08-1.38,7.09-2.62,8.86-.79,1.13-.6,2.66.39,3.63,8.94,8.79,22.06,30.48,25.01,35.45.39.66.49,1.44.29,2.17-2.11,7.73-3.77,14.89-4.42,17.76-.18.82-.7,1.48-1.45,1.85-2.33,1.16-7.85,4.45-13.38,11.72-7.26,9.56-9.56,36.32,2.29,60.03,11.12,22.24,39.74,26.64,43.24,27.1.24.03.47.03.71,0l13.32-1.8c.31-.04.62-.03.93.03l14.63,2.93c.14.03.28.04.42.05l22.44,1.07c.89.04,1.71.5,2.2,1.24,1.88,2.85,6.98,10.27,12.23,15.53,4.26,4.26,7.68,3.04,9.57,1.63,1.07-.8,2.49-.75,3.51.11,7.18,6.13,15.78,7.38,24.39,6.79,11.09-.76,27.53-16.82,36.32-41.67,8.26-23.35-.39-62.53-1.46-67.18-.07-.31-.09-.62-.05-.94Z"/>
  <path class="cls-5" d="m230.86,170.33c-.3-1.54,6.79-5.14,8.28-5.63,6.62-2.16,19.63-9.63,29.11-7.96,17.05,3.01,10.07,16.44,10.94,17.09,0,0-.64,10.54-18.99,28.36-2.91,2.82-5.68,3.87-8.27,3.63-11.3-1.04-19.33-26.4-21.08-35.49Z"/>
  <ellipse class="cls-15" cx="181.95" cy="99.76" rx="3.77" ry="4.27"/>
  <ellipse class="cls-15" cx="132.83" cy="128.61" rx="6.18" ry="2.91" transform="translate(-24.3 31.18) rotate(-12.27)"/>
  <ellipse class="cls-15" cx="102.56" cy="124.03" rx="3.77" ry="4.27"/>
  <path class="cls-1" d="m109.01,147.02s-3.71,7.78,5.48,4.6c9.19-3.18,19.27-11.67,32.53-14.14,13.26-2.47,25.28-5.13,31.64-4.6s6.89-6.19,1.06-8.31"/>
  <ellipse class="cls-2" cx="212.98" cy="138.72" rx="18.48" ry="19.18"/>
  <ellipse class="cls-18" cx="169.99" cy="288.15" rx="71.3" ry="72.06"/>
  <ellipse class="cls-3" cx="93.77" cy="166.28" rx="12.76" ry="19.18" transform="translate(-40.91 30.99) rotate(-15.45)"/>
  <path class="cls-11" d="m80.53,159.02s-.73,23.84,26.89,45.5"/>
  <g>
    <path class="cls-6" d="m280.97,91.33s-70.23,9.19-79.72,3.72-15.69-17.15,12.77-44.88c28.46-27.73,68.6-38.68,68.6-38.68,0,0,20.44-6.2,41.24-8.03l-35.4,14.6-31.38,19.71s-25.54,22.62-25.18,24.45c.36,1.82-.36,19.34-.36,19.34l27.73,5.47,21.7,4.31Z"/>
    <path class="cls-12" d="m280.97,91.33s-58.6.86-67.22-6.89,30.59-42.66,55.59-55.59c24.99-12.93,15.51-8.19,15.51-8.19l-16.37,24.13s-11.2,21.55-10.34,26.29c.86,4.74,2.59,9.91,9.91,13.36,7.33,3.45,12.93,6.89,12.93,6.89Z"/>
  </g>
  <path class="cls-9" d="m230.86,170.33s-14.76,8.38-18.74,13.95"/>
  <path class="cls-8" d="m251.93,205.82s-17.92,7.93-25.08,9.92"/>
  <path class="cls-11" d="m85,261.45s13.92-3.42,18.64,16.81"/>
  <path class="cls-10" d="m141.13,361.37c-6.85-86.3-3.02-87.61-2.42-97.48.6-9.87-2.01-11.08-5.44-12.08-3.42-1.01-2.5,7.66-2.5,7.66,0,0-1.57-5.76-3.21-7.78-.87-1.07-1.75-1.36-2.89-1.45-.32-.09-.64-.15-.98-.17-1.21-.55-2.22-.39-3.09,0-1.25-.03-2.03.74-2.51,1.75-.04.03-.08.06-.12.09-.11.08-.15.3-.16.59-.35,1.02-.46,2.06-.5,2.6-.22-.05-.47-.1-.74-.15-.27-.21-.53-.48-.82-.62-1.45-.73-3.04-.21-4.51.81-7.01,1.84-15.65,11.39-9.53,50.36,2.9,18.45,6.91,31.9,11.09,41.71,7.74,23.92,13.61,25.83,19.76,25.67.23.09.36.14.36.14v-.15c.71-.03,1.43-.07,2.16-.11,7.45-.4,6.04-11.38,6.04-11.38Z"/>
  <line class="cls-13" x1="117.31" y1="255.1" x2="117.52" y2="261.43"/>
  <ellipse class="cls-14" cx="123.4" cy="335.63" rx="5.44" ry="13.18" transform="translate(-50.67 23.26) rotate(-8.94)"/>
</svg>