<?xml version="1.0" encoding="UTF-8"?>
<svg id="Layer_1" data-name="Layer 1" xmlns="http://www.w3.org/2000/svg" viewBox="0 0 382.08 452.6">
  <defs>
    <style>
      .cls-1 {
        fill: #be9383;
      }

      .cls-1, .cls-2, .cls-3, .cls-4, .cls-5, .cls-6, .cls-7 {
        stroke: #000;
        stroke-miterlimit: 10;
        stroke-width: 4.87px;
      }

      .cls-2, .cls-8 {
        fill: #413263;
      }

      .cls-3, .cls-9 {
        fill: #333;
      }

      .cls-4, .cls-7 {
        fill: #666;
      }

      .cls-5, .cls-10 {
        fill: gold;
      }

      .cls-6 {
        fill: #fff;
      }

      .cls-7 {
        stroke-linecap: round;
      }

      .cls-11, .cls-12, .cls-8, .cls-9, .cls-13, .cls-10 {
        stroke-width: 0px;
      }

      .cls-12 {
        fill: #191617;
      }

      .cls-13 {
        fill: #fff4b0;
      }
    </style>
  </defs>
  <g>
    <g id="qIKz93">
      <g>
        <path class="cls-3" d="m264.17,318.03c3.15-3.43,2.28-8.22,4.08-12.11,1.36,13.91,6.32,26.85,10.8,39.91,1.26,3.68,2.91,7.39,6.18,9.65,5.97,4.13,8.41,10.09,9.5,16.82,2.77,17.1,4.22,34.37,7.6,51.41,2.12,10.71-4.89,16.23-15.57,13.64-4.03-.98-8.26-.49-12.11-2.97-4.4-2.84-5.81-5.27-2.38-9.17,5.52-6.29,5.32-12.93,3.16-20.18-1.37-4.59-2.51-9.25-3.87-13.84-4.1-13.86-11.2-24.75-25.75-30.2-8.69-3.25-16.52-8.82-24.74-13.34-.24-.51-.62-.99-1.14-.53-.18.16.14.89.23,1.36,1.92,5.17,4.31,10.16,5.29,15.67.89,5.04.34,9.9-3.35,13.39-13.09,12.4-20.01,28.51-27.43,44.36-.23.5-.39,1.05-.68,1.51-3.23,5.16-4.06,12.52-11.12,14.31-9.5,2.41-19.03,1.75-28.13-2.15-3-1.29-5-3.35-2.58-6.87.58.35,1.36,1.15,1.72,1,6.06-2.68,12.73-2.66,18.98-4.43,3.4-.96,6.18-2.59,8.02-6.05,6.33-11.89,9.63-24.87,14.05-37.44,1.02-2.9-.19-4.23-3.16-3.93-2.9.29-5.78.71-8.67,1.08,3.62-7.64-.6-12.03-6.01-16.82-11.11-9.83-18.37-22.03-19.4-37.24-.15-2.27-.87-2.76-3.03-2.35-4.72.89-8.06,1.84-8.43,8.27-1.22,21.05-8.84,39.91-21.85,56.54-1.7,2.18-3.19,4.53-5.02,6.59-6.83,7.7-11.43,15.94-11.88,26.87-.42,10.29-3.61,12.66-14.06,14.36-3.35.54-3.99,3.07-5.18,5.09-4.34,7.35-10.05,11.52-18.99,9.38,6.61-.79,10-5.48,12.59-10.84,2.7-5.61,5.25-11.31,7.46-17.13,5.44-14.29,14.39-26.27,24.17-37.76,2.12-2.49,3.37-4.81-1.04-6.18,2.23.1,4.53.59,6.5-1,3.83-.83,6.33-3.61,8.72-6.33,8.15-9.31,12.84-20.36,15.23-32.35.95-4.77,1.68-9.78-.62-14.53-.54-1.43-1.09-2.86-1.63-4.29,4.35-2.21,5.37-6.34,6.1-10.63.3-1.73-.59-3.64.73-5.23.38.14.95.27.95.37-.31,5.69,1.89,6.26,6.98,4.43,8.64-3.11,17.9-3.72,26.94-5.14,2.24-.35,3.88,1.04,5.59,2,15.76,8.84,31.94,16.81,48.68,23.61,1.96.79,4.39,2.69,6.12-.57.45,1.1.9,2.19,1.34,3.29,2.27,10.42,6.79,19.72,14.12,27.51,2.51,2.67,5.56,5.37,9.6,3.87,3.94-1.47,4.71-5.32,5.07-9.08,1.12-11.69-2.08-22.51-6.68-33.04-.4-.91-1.07-1.45-2.03-1.65-.08-.31-.05-.61.08-.9Z"/>
        <path class="cls-2" d="m297.96,162.92c25.22-10.69,51.74-15.43,78.88-17.33,0,1.66-1.2,2.61-2.22,3.66-9.34,9.63-18.76,19.22-29.13,27.71-5.56,4.56-9.98,10.93-17.59,12.73-.27-.02-.53-.08-.78-.19-2.96-11.21-10.23-18.62-20.6-23.24-2.8-1.24-5.71-2.24-8.56-3.35Z"/>
        <path class="cls-3" d="m246.32,249.48c-3.82.29-5.93-2.78-8.34-4.76-2.81-2.31.26-2.66,1.82-3.24,10.48-3.93,20.89-8.04,30.87-13.13,12.6-6.43,24.66-13.77,36.4-21.65,1.84-1.24,3.61-2.52,5.85-2.95,2.79,4.23.57,9.54,2.96,13.85-.44,1.64-1.98,2.12-3.19,2.86-18.43,11.35-37.95,20.29-58.57,26.88-2.58.83-5.48.41-7.79,2.14Z"/>
        <path class="cls-2" d="m81.2,31.33c.41-2.68,2.89-3.58,4.57-5.06,10.09-8.89,21.2-16.34,32.94-22.89,2.84-1.59,4.05-1.37,3.49,2.17-1.19,7.6-2.2,15.24-4.76,22.56-1.96.15-2.57,1.69-3.36,3.14-2.4,4.45-4.87,8.86-7.32,13.29-6.38-8.55-14.52-13.7-25.57-13.22Z"/>
        <path class="cls-2" d="m183.09,378.92c2.89-.36,5.77-.79,8.67-1.08,2.97-.3,4.18,1.03,3.16,3.93-4.42,12.57-7.73,25.55-14.05,37.44-1.84,3.46-4.62,5.09-8.02,6.05-6.25,1.77-12.92,1.75-18.98,4.43-.36.16-1.14-.64-1.72-1,.15-.38.31-.76.46-1.14.22-.36,1.53.17.8-.97.38-.6.63-1.39,1.17-1.77,15.12-10.72,22.43-26.34,27.37-43.47.24-.85.75-1.62,1.13-2.43Z"/>
        <path class="cls-5" d="m297.96,162.92c2.86,1.11,5.77,2.1,8.56,3.35,10.37,4.61,17.64,12.03,20.6,23.24-2.28,6.82-8.38,9.23-14.03,12.16,0,0-.42.16-.42.16-.08-.37-.16-.73-.24-1.1-3.6-12.88-12.65-20.72-24.16-26.37-1.61-.79-4.32-.39-4.42-3.29,4.7-2.71,9.4-5.43,14.1-8.14Z"/>
        <path class="cls-2" d="m200.77,80.18c18.29-.87,36.43.07,54.32,4.28-.74,1.82-2.35,2.68-3.88,3.7-9.37,6.26-20.14,9.42-30.34,13.85-3.95,1.71-7.91,3.23-9.29-3.04-.24-.02-.47-.08-.69-.18-.77-7.62-5.28-13.21-10.12-18.62Z"/>
        <path class="cls-3" d="m34.93,203.91c5.97-1.2,11.22,2.06,16.91,2.79,6.33.81,12.53,2.67,18.98,2.93,4.27.17,5.5,1.7,3.23,5.85-5.96,10.92-14.79,18.6-25.83,23.98-1.28-13.02-4.73-25.23-13.28-35.54Z"/>
        <path class="cls-3" d="m327.91,189.69c7.6-1.81,12.02-8.17,17.59-12.73,10.37-8.49,19.79-18.08,29.13-27.71,1.02-1.05,2.22-1.99,2.22-3.66,4-.98,2.86,1.05,1.76,3.02-6.19,11.07-13.27,21.55-21.18,31.46-7.11,8.91-14.78,17.3-23.44,24.75-1.32,1.13-2.32,3-4.56,2.57-.15-5.93-.43-11.85-1.52-17.7Z"/>
        <path class="cls-3" d="m131.13,128.73c-3.03-2.4-6.76,0-11.32-2.03,25.07-4.29,48.54-10,72.04-15.62.97,5.22-1.57,9.32-4.3,13.35-1.1.6-1.18,1.64-1.16,2.72-1.1.11-2.19.22-3.29.32-.81-1.05-1.52-.84-2.16.19-3.3.81-6.64,1.06-10.02.9-1.52-1.32-2.98-1.23-4.37.22-11.81.91-23.62.79-35.42-.05Z"/>
        <path class="cls-10" d="m82.26,93.33c2.42,2.33,1.4,4.82,0,7-8.31,12.94-20.31,20.67-35.22,23.6-6.67,1.31-10.11-3.68-6.88-10.12,5.6-11.17,14.09-19.15,27.03-21.22,2.95-.88,6.07,1.78,8.96-.43,1.82,1.51,4.01,1.1,6.1,1.17Zm-12.37,1.54c-9.32,1.85-17.11,6.31-23,14.03-1.05,1.38-1.61,3.02-.41,4.55,1.18,1.52,3.16,1.55,4.58.92,7.57-3.34,16.04-5.05,21.8-11.75,1.54-1.79,3.89-3.57,2.79-6.12-.96-2.22-3.58-.75-5.75-1.64Z"/>
        <path class="cls-5" d="m200.77,80.18c4.85,5.4,9.36,10.99,10.12,18.61-.69,2.55,1.39,6.17-2.68,7.43-4.99,1.54-9.83,3.76-15.21,3.71,1.28-9.04-1.94-16.55-7.78-23.23-1.03-1.17-3.49-1.91-1.92-4.31,5.82-.74,11.65-1.48,17.47-2.22Z"/>
        <path class="cls-3" d="m211.59,98.98c1.37,6.27,5.34,4.75,9.29,3.04,10.2-4.43,20.97-7.59,30.34-13.85,1.53-1.03,3.15-1.88,3.88-3.7,1.07.55,2.15,1.1,3.62,1.86-15.11,14.71-31.19,27.47-50.59,35.55-.82.34-1.78.34-2.67.5,4.4-7.18,7.03-14.82,6.14-23.39Z"/>
        <path class="cls-5" d="m81.2,31.33c-2.17,3.54,19.18,4.67,25.57,13.22.02.38.05.77.07,1.15-3.68,3.06-3.97,8.81-8.7,11.04-6.61-7.53-14.75-11.65-24.93-11.18-1.91.09-4.14-.65-3.03-2.49,2.11-2.2,4.22-4.4,6.33-6.58.02-.3.17-.56.45-.75,0,0-.11.09-.11.09.71-.11,1.09-.53,1.15-1.24,0,0-.09.09-.09.09.72-.08,1.12-.48,1.19-1.2,0,0-.09.09-.09.09.72-.08,1.12-.48,1.2-1.2,0,0-.09.09-.09.09.72-.08,1.12-.48,1.19-1.2l-.12.07Z"/>
        <path class="cls-5" d="m211.59,98.98c.89,8.57-1.74,16.21-6.14,23.39-4.96,3.78-11.3,2.31-16.7,4.41-.4-.78-.8-1.57-1.2-2.35,2.73-4.03,5.26-8.13,4.3-13.35.39-.38.78-.76,1.17-1.14,5.38.05,10.22-2.17,15.21-3.71,4.07-1.26,1.99-4.88,2.68-7.43.22.11.45.17.69.18Z"/>
        <path class="cls-3" d="m76.16,92.17c-2.89,2.21-6.01-.45-8.96.43,1.54-4.76,6.47-5.95,9.62-9.04,8.06-7.92,15.77-16.06,21.24-26.06,1.43,1.61,2.86,3.22,4.28,4.83-6.42,11.97-15.58,21.53-26.18,29.83Z"/>
        <path class="cls-5" d="m327.91,189.69c1.09,5.85,1.37,11.77,1.52,17.7-3.53,4.71-8.54,7.46-13.56,10.2-2.39-4.32-.17-9.62-2.96-13.85.06-.69.12-1.39.18-2.08,5.65-2.93,11.75-5.34,14.03-12.16.25.11.51.17.78.19Z"/>
        <path class="cls-3" d="m106.85,45.7c-.02-.38-.05-.77-.07-1.15,2.44-4.43,4.92-8.84,7.32-13.29.78-1.45,1.39-2.99,3.36-3.14-1.99,7.66-3.97,15.33-8.27,22.12-.57-1.62-1-3.31-2.34-4.53Z"/>
        <path class="cls-1" d="m106.85,45.7c1.33,1.23,1.77,2.91,2.34,4.53-1.53,4.46-3.72,8.54-6.84,12.1-1.43-1.61-2.86-3.22-4.28-4.83.03-.25.06-.5.09-.76,4.73-2.24,5.01-7.98,8.7-11.04Z"/>
        <path class="cls-8" d="m76.97,35.74c-.28.19-.43.44-.45.75-.12-.03-.25-.06-.38-.08.28-.22.55-.44.83-.67Z"/>
        <path class="cls-12" d="m153.41,426.59c.73,1.14-.58.61-.8.97.27-.32.53-.65.8-.97Z"/>
        <path class="cls-8" d="m78.01,34.58c-.06.72-.44,1.13-1.15,1.24-.23-.98.12-1.42,1.15-1.24Z"/>
        <path class="cls-8" d="m79.11,33.48c-.08.72-.47,1.12-1.19,1.2-.2-.99.17-1.42,1.19-1.2Z"/>
        <path class="cls-8" d="m80.22,32.37c-.08.72-.48,1.12-1.2,1.2-.22-1.01.18-1.41,1.2-1.2Z"/>
        <path class="cls-8" d="m81.33,31.26c-.08.72-.48,1.12-1.19,1.2-.21-1,.14-1.45,1.19-1.2Z"/>
        <path class="cls-9" d="m59.24,302.52c10.95,3.81,22.13,6.7,33.7,7.76,2.17.2,3,1.24,2.71,3.22-2.56,17.34-4.52,34.73-5.6,52.5-1.7-4.33-3.4-8.66-5.1-12.99-6.58-16.85-14.1-33.2-24.8-47.92-.51-.7-.67-1.67-.99-2.51l.07-.07Z"/>
        <path class="cls-10" d="m140.59,319.21c.54,1.43,1.09,2.86,1.63,4.29-3.64,3.72-2.51,9.72-6.39,13.32-.43-.42-.87-.84-1.3-1.25-2.85-3.34-6.15-3.85-9.3-.74-6.45,6.36-9.79,14.2-9.62,23.3.1,5.42,2.06,6.83,7.75,6.37,1.64,1.02.6,2.16.08,3.21-1.49,3.02-3.04,6.01-4.56,9.01-1.98,1.59-4.27,1.1-6.5,1,0,0,.03.09.03.09-.77-.56-1.53-1.11-2.3-1.67-3.32-4.83-3.88-10.29-3.11-15.84,2.07-14.95,7.61-28.35,18.87-38.81,5.65-5.25,9.16-5.59,14.7-2.27Z"/>
        <path class="cls-10" d="m244.02,331.33c-.45-1.1-.9-2.19-1.34-3.29-.71-6-1.68-11.99-.76-18.04.51-3.34,1.39-6.64,5.02-7.91,3.45-1.21,6.07.87,8.36,2.96,3.95,3.61,7.26,7.74,8.87,12.99-.13.29-.16.59-.08.9-.07,1.88-.2,3.73-2.28,4.62-1.08-1.45-2.07-3-3.27-4.34-1.59-1.77-3.4-3.58-6.05-2.81-2.71.78-2.96,3.34-3.46,5.68-.76,3.51.64,6.84.7,10.27-2.05.52-3.78-.8-5.7-1.01Z"/>
        <path class="cls-12" d="m68.13,128.78c-.75.51-1.5,1.02-2.25,1.54.29-1.18,1.2-1.46,2.25-1.54Z"/>
        <path class="cls-12" d="m110.13,376.13c.77.56,1.53,1.11,2.3,1.67-1.1-.1-2.02-.44-2.3-1.67Z"/>
        <path class="cls-12" d="m312.44,200.73c.08.37.16.73.24,1.1-.19-.23-.41-.46-.56-.72-.03-.05.2-.25.32-.38Z"/>
        <path class="cls-12" d="m69.29,127.7c-.41.38-.82.75-1.23,1.13.41-.38.82-.75,1.23-1.13Z"/>
        <path class="cls-12" d="m59.17,302.59c-.15-.16-.3-.33-.44-.49.17.14.34.28.51.43,0,0-.07.07-.07.07Z"/>
        <path class="cls-13" d="m127.11,130.43c-.57-1.43-.12-1.79,1.25-1.19-.42.39-.83.79-1.25,1.19Z"/>
        <path class="cls-1" d="m244.02,331.33c1.92.21,3.65,1.53,5.7,1.01.27.04.54.07.81.1.95,5.58,3.47,10.39,7.3,14.51,1.39,1.5,3.13,2.87,5.32,2.11,2.35-.82,3.12-2.99,3.28-5.28.43-6.38-.96-12.38-3.88-18.05-.25-.73-.49-1.46-.74-2.19,2.08-.89,2.21-2.74,2.28-4.62.96.2,1.64.75,2.03,1.65,4.6,10.54,7.8,21.36,6.68,33.04-.36,3.76-1.12,7.61-5.07,9.08-4.04,1.51-7.09-1.2-9.6-3.87-7.32-7.79-11.84-17.09-14.12-27.51Z"/>
        <path class="cls-1" d="m127.84,360.19s.06-.08.06-.08c-.39.46-.78.91-1.17,1.37-1.12,1.01-2.23,2.01-3.35,3.02,1.64,1.02.6,2.16.08,3.21-1.49,3.02-3.04,6.01-4.56,9.01,3.83-.83,6.33-3.61,8.72-6.33,8.15-9.31,12.84-20.36,15.23-32.35.95-4.77,1.68-9.78-.62-14.53-3.64,3.72-2.51,9.72-6.39,13.32l-9.11,24.65"/>
        <path class="cls-2" d="m69.89,94.87c2.17.9,4.79-.58,5.75,1.64,1.1,2.55-1.25,4.33-2.79,6.12-5.76,6.7-14.23,8.41-21.8,11.75-1.42.63-3.39.59-4.58-.92-1.2-1.54-.64-3.17.41-4.55,5.89-7.72,13.68-12.19,23-14.03Z"/>
        <path class="cls-2" d="m126.26,332.23c2.76-.68,4.12-4.07,6.75-2.53,3.02,1.77,2.14,5.28,2.05,8.21-.33,10.96-7.1,18.85-11.75,27.73-.87,1.67-2.78,3.07-5.08,2.4-2.33-.68-3.06-2.74-3.12-4.89-.33-12.09,3.67-22.27,11.14-30.92Z"/>
        <path class="cls-8" d="m250.53,332.45c-.27-.03-.54-.07-.81-.1-.06-3.43-1.46-6.76-.7-10.27.51-2.34.75-4.9,3.46-5.68,2.65-.77,4.46,1.04,6.05,2.81,1.2,1.34,2.19,2.89,3.27,4.34.25.73.49,1.46.74,2.19-3.88,2.47-5.85,8.36-12.02,6.71Z"/>
        <path class="cls-12" d="m250.53,332.45c6.17,1.65,8.14-4.24,12.02-6.71,2.92,5.67,4.31,11.67,3.88,18.05-.16,2.3-.92,4.47-3.28,5.28-2.19.76-3.93-.61-5.32-2.11-3.82-4.12-6.35-8.93-7.3-14.51Z"/>
        <path class="cls-12" d="m126.72,361.47c.39-.46.78-.91,1.17-1.37-.39.46-.78.91-1.17,1.37Z"/>
        <path class="cls-7" d="m312.68,201.83c-.19-.23-.41-.46-.56-.72-.03-.05.2-.25.32-.38-3.6-12.88-12.65-20.72-24.16-26.37-1.61-.79-4.32-.39-4.42-3.29-8.04,4.37-14.28,10.91-20.52,17.38-13.11,13.59-24.06,28.84-33.94,44.9-1.03,1.67-1.35,4.03-4.77,3.13-12.72-3.34-25.91-3.52-38.37-.33-19.48,4.98-36.64,1-53.09-9.24-.16-.1-.3-.23-.46-.3-9.82-4.33-15.32-12.01-18.25-22.21-1.34-4.67-.89-8.02,1.86-12.12,12.66-18.93,18.37-39.27,10.8-61.83-.57-1.44-.12-1.79,1.25-1.19.92-.17,1.85-.34,2.77-.51-3.03-2.4-6.76,0-11.32-2.03,25.07-4.29,48.54-10,72.04-15.62l1.19-1.3c1.22-8.97-1.99-16.43-7.81-23.07-1.03-1.17-3.49-1.91-1.92-4.31-2.22-.61-4.35-.05-6.52.39-21.83,4.42-42.1,12.84-61.26,24.03-2.63,1.54-4.06,1.6-6.49-.56-7.63-6.82-16.31-11.82-26.77-12.92,2.42,2.33,1.4,4.82,0,7-8.31,12.94-20.31,20.67-35.22,23.6-6.67,1.31-10.11-3.68-6.88-10.12,5.6-11.17,14.09-19.15,27.03-21.22,1.54-4.76,6.48-5.95,9.62-9.04,8.13-7.99,15.9-16.2,21.38-26.33l-.06-.49c-6.61-7.52-14.75-11.65-24.92-11.18-.64.03-1.21-.02-1.67-.19-1.63-.58-3.44.25-4.42,1.67-.19.28-.38.56-.55.83-8.92,13.9-14.86,29.11-19.38,44.9-.82,2.88-2.04,4.75-4.76,6.17-9.46,4.94-16.81,12.33-23.21,20.77-1.24,1.63-1.92,2.94-.42,4.81,3.51,4.37.89,4.54-2.77,3.88-.3.85-.89,1.7-.86,2.54.18,5.12-1.86,4.42-4.69,1.88-7.61,4.78-9.17,11.64-7.38,20.05,4.44,20.91,17.59,36.29,31.82,51.04,5.97-1.2,11.22,2.06,16.91,2.79,6.33.81,12.53,2.67,18.98,2.93,4.27.17,5.5,1.7,3.23,5.85-5.96,10.92-14.79,18.6-25.83,23.98-.09,11.07-1.52,21.99-3.25,32.91-1.09,6.9-1.58,13.83-.59,20.89,2.19,15.64,7.36,30.35,13.4,44.8,7.74,18.52,14.57,37.35,19.58,56.8.51,1.97,1.43,3.99.22,5.87-7.24,11.29-10.97,25.24-24.24,31.99-1.41.72-2.66,2.03-3.62,3.33-3.14,4.28-1.54,7.74,3.71,8.07.82.05,1.4.2,1.9.7,3.87,3.84,9.08,3.78,13.91,4.8,6.61-.79,10-5.48,12.59-10.84,2.7-5.61,5.25-11.31,7.46-17.13,5.44-14.29,14.39-26.27,24.17-37.76,2.12-2.49,3.37-4.81-1.04-6.18l.03.09c-1.1-.1-2.02-.44-2.3-1.67-3.32-4.83-3.88-10.29-3.11-15.84,2.07-14.95,7.61-28.35,18.87-38.81,5.65-5.25,9.16-5.59,14.7-2.27,4.35-2.21,5.37-6.34,6.1-10.63.3-1.73-.59-3.64.73-5.23.38.14.95.27.95.37-.31,5.69,1.89,6.26,6.98,4.43,8.64-3.11,17.9-3.72,26.94-5.14,2.24-.35,3.88,1.04,5.59,2,15.76,8.84,31.94,16.81,48.68,23.61,1.96.79,4.39,2.69,6.12-.57-.71-6-1.68-11.99-.76-18.04.51-3.34,1.39-6.64,5.02-7.91,3.45-1.21,6.07.87,8.36,2.96,3.95,3.61,7.26,7.74,8.87,12.99,3.15-3.43,2.28-8.22,4.08-12.11.35-21.01-4.74-39.92-20.96-54.58-.49-.44-.65-1.23-.97-1.86-3.82.29-5.93-2.78-8.34-4.76-2.81-2.31.26-2.66,1.82-3.24,10.48-3.93,20.89-8.04,30.87-13.13,12.6-6.43,24.66-13.77,36.4-21.65,1.84-1.24,3.61-2.52,5.85-2.95.06-.69.12-1.38.18-2.08,0,0-.42.16-.42.16Zm-217.03,111.67c-2.56,17.34-3.85,30.68-8.57,47.91-1.2-3.97-.44-4.06-2.13-8.39-6.58-16.85-14.1-33.2-24.8-47.92-.51-.7-.67-1.67-.99-2.51-.15-.17-.3-.33-.44-.49.17.14.34.28.51.43,10.95,3.81,22.13,6.7,33.7,7.76,2.17.2,3,1.24,2.71,3.22Z"/>
      </g>
    </g>
    <path class="cls-6" d="m93.24,128.47c2.59,6.51-2.07,15.05-11.37,19.5-9.3,4.45-19.43,2.99-22.31-3.4-2.97-6.58,4.24-11.4,13.54-15.84,9.3-4.45,17.92-5.84,20.14-.26Z"/>
    <circle class="cls-12" cx="72.48" cy="136.53" r="2.22"/>
    <path class="cls-6" d="m9.61,135.93c2.98,2.11,7.59,1.11,10.6-2.62s3.17-8.68.28-10.91c-2.98-2.3-5.98.41-8.99,4.15-3,3.74-4.44,7.58-1.89,9.39Z"/>
    <circle class="cls-12" cx="13.93" cy="127.99" r="1.57"/>
    <line class="cls-4" x1="67.09" y1="92.49" x2="82.16" y2="93.23"/>
    <line class="cls-2" x1="77.56" y1="400.71" x2="89.48" y2="350.02"/>
  </g>
  <path class="cls-11" d="m19.2,159.86h18.58c1.57,0,3.08-1.38,3.01-3.01s-1.32-3.01-3.01-3.01h-18.58c-1.57,0-3.08,1.38-3.01,3.01s1.32,3.01,3.01,3.01h0Z"/>
</svg>