<svg width="355" height="405" viewBox="0 0 355 405" fill="none" xmlns="http://www.w3.org/2000/svg">
<path d="M165.297 10.2673C165.297 -0.0434561 185.327 -0.0434561 185.327 10.2673C185.327 -0.0434561 203.281 -0.0434561 203.281 10.2673C203.281 -0.0434561 216.063 -0.0434561 216.063 10.2673C221.293 -11.4213 238.262 20.7869 229.598 37.3375H153.664C142.716 23.8604 152.702 -6.26008 165.297 10.2673Z" fill="#FFE98A" stroke="black" stroke-width="3.49027" stroke-linejoin="round"/>
<path d="M83.8317 70.3924C98.921 71.0535 150.66 52.3572 166.759 59.3741L170.818 43.7165C146.16 29.4508 113.442 31.4341 102.389 37.9174C90.0136 45.1663 86.1514 49.5156 86.1514 57.6344C86.1514 69.047 73.347 69.9284 83.8317 70.3924Z" fill="#EC6A56" stroke="black" stroke-width="4.65369" stroke-miterlimit="10"/>
<path d="M83.8317 70.3924C80.793 70.2648 79.7144 70.0908 79.7144 69.6385C80.0971 69.1977 80.4798 68.7454 80.8974 68.2699C81.8252 67.4348 83.1358 66.2402 84.226 64.5237C89.3524 58.8522 96.5433 51.3133 106.263 41.9768C111.041 37.3955 116.701 34.6235 122.709 33.1274C137.114 32.2691 155.52 34.8671 170.818 43.7165L166.759 59.3741C150.66 52.3572 98.9209 71.0535 83.8317 70.3924Z" fill="#8E4E3A" stroke="black" stroke-width="3.49027" stroke-linecap="round" stroke-linejoin="round"/>
<path d="M138.274 96.4883C153.363 97.1609 163.418 71.5522 179.517 78.7198L183.576 62.7259C158.918 48.1586 133.089 56.7065 122.036 63.3174C109.661 70.7287 101.159 73.9762 101.159 82.2689C101.159 93.9251 127.789 96.0127 138.274 96.4883Z" fill="#8E4E3A" stroke="black" stroke-width="4.65369" stroke-linejoin="round"/>
<path d="M89.5612 51.093C89.5728 49.8288 93.7249 43.3222 99.9996 41.9768C104.569 40.991 89.538 54.1433 89.5612 51.093Z" fill="#FEFAFF"/>
<path d="M294.269 68.0727C279.18 68.7338 227.44 50.0375 211.342 57.0545L207.283 41.3969C231.941 27.1311 264.659 29.1144 275.712 35.5978C288.087 42.8467 291.95 47.196 291.95 55.3147C291.95 66.7273 304.754 67.6088 294.269 68.0727Z" fill="#EC6A56" stroke="black" stroke-width="4.65369" stroke-miterlimit="10"/>
<path d="M294.269 68.0725C297.308 67.945 298.387 67.771 298.387 67.3187C298.004 66.8779 297.621 66.4256 297.204 65.9501C296.276 65.115 294.965 63.9204 293.875 62.2039C288.749 56.5323 281.558 48.9935 271.838 39.657C267.06 35.0757 261.4 32.3037 255.392 30.8076C240.987 29.9493 222.581 32.5473 207.283 41.3967L211.342 57.0543C227.44 50.0374 279.18 68.7336 294.269 68.0725Z" fill="#8E4E3A" stroke="black" stroke-width="3.49027" stroke-linecap="round" stroke-linejoin="round"/>
<path d="M244.467 96.4883C229.377 97.1609 219.322 71.5522 203.223 78.7198L199.164 62.7259C223.822 48.1586 249.651 56.7065 260.704 63.3174C273.079 70.7287 281.581 73.9762 281.581 82.2689C281.581 93.9251 254.951 96.0127 244.467 96.4883Z" fill="#8E4E3A" stroke="black" stroke-width="4.65369" stroke-linejoin="round"/>
<path d="M142.913 25.7394C142.913 25.7394 161.667 33.1854 166.109 46.6161C166.109 46.6161 195.105 53.575 213.662 43.1367C213.662 43.1367 222.36 31.84 221.003 26.76C217.454 13.3989 142.414 20.5434 142.913 25.7394Z" fill="#B64A3B"/>
<path d="M125.516 38.4973C125.516 38.4973 128.299 29.7755 138.274 23.4197C151.032 15.301 215.297 17.2727 219.461 17.6206C233.379 18.7804 220.621 39.6572 220.621 39.6572C220.621 39.6572 207.863 33.8581 198.584 36.1777C189.306 38.4973 159.266 40.817 153.409 38.4973C147.552 36.1777 133.634 32.6982 125.516 38.4973Z" fill="#ED705B" stroke="black" stroke-width="4.65369" stroke-linecap="round" stroke-linejoin="round"/>
<path d="M162.05 32.3735C167.494 32.3735 171.908 30.3691 171.908 27.8966C171.908 25.4241 167.494 23.4197 162.05 23.4197C156.605 23.4197 152.191 25.4241 152.191 27.8966C152.191 30.3691 156.605 32.3735 162.05 32.3735Z" fill="#FEFAFF"/>
<path d="M194.525 22.2599C199.969 22.2599 204.383 21.2213 204.383 19.9402C204.383 18.6591 199.969 17.6206 194.525 17.6206C189.08 17.6206 184.666 18.6591 184.666 19.9402C184.666 21.2213 189.08 22.2599 194.525 22.2599Z" fill="#FEFAFF"/>
<path d="M219.461 114.396C219.461 136.328 160.31 136.328 160.31 114.396C157.944 93.9135 161.145 70.6475 167.524 45.781C182.428 39.17 197.332 39.17 212.247 45.781C218.29 71.6914 221.456 95.2009 219.461 114.396Z" fill="#C68244"/>
<path d="M219.461 114.396C221.781 86.2703 215.981 64.9064 212.247 45.781C197.343 39.17 182.439 39.17 167.524 45.781C166.933 48.0774 166.388 50.3507 165.854 52.6123C168.093 54.0505 170.76 55.4191 173.95 56.6717C195.105 64.9064 214.88 115.417 219.461 114.407V114.396Z" fill="#B77442"/>
<path d="M161.47 71.3087C162.467 73.6747 163.349 76.7018 165.216 78.3835C166.04 79.1374 167.072 78.9635 168.336 78.6387C169.589 78.2792 170.957 77.8152 172.361 77.4441C173.08 77.2585 173.857 77.0498 174.599 76.9686C179.459 76.7018 184.121 81.0279 188.61 80.7612C193.353 80.3436 196.949 75.7276 201.878 75.3216C208.431 74.3706 213.059 85.2729 217.721 75.6C216.538 81.8166 212.374 82.211 207.422 79.555C205.555 78.7199 204.151 77.7109 202.296 78.2096C197.308 79.3346 194.536 83.8115 188.795 84.2406C185.548 84.3334 182.753 82.9996 180.027 81.7238C178.229 80.9003 176.524 79.8797 174.669 79.8681C171.885 80.0421 169.276 81.2599 166.353 80.9004C162.34 80.1349 161.957 74.5561 161.47 71.3319V71.3087Z" fill="#AA5D1D"/>
<path d="M160.31 90.4341C161.226 93.7163 161.992 97.0798 163.233 100.142C163.708 101.302 164.462 103.053 165.622 103.354C166.492 103.563 168.127 102.775 169.658 102.09C171.294 101.394 172.964 100.571 174.819 100.513C178.705 100.977 181.477 103.981 184.666 105.709C187.485 107.379 189.526 107.518 192.194 105.442C195.615 102.914 198.422 98.6224 203.073 97.8453L203.85 97.7873C206.703 97.6365 208.756 100.432 210.519 101.916C213.105 104.433 215.425 105.848 217.478 102.09C218.289 100.664 218.893 99.0515 219.449 97.4394C219.101 100.014 218.742 102.798 216.944 104.885C212.989 108.701 208.419 102.45 205.126 100.838C204.082 100.293 202.678 100.919 201.669 101.487C198.955 103.192 196.96 106.126 194.223 108.156C188.459 112.935 183.495 109.293 178.624 105.697C177.209 104.665 175.829 103.737 174.634 103.528C174.425 103.586 174.414 103.494 174.124 103.575C171.004 104.016 168.197 106.37 164.903 105.523C160.554 103.61 160.693 94.5166 160.287 90.4457L160.31 90.4341Z" fill="#AA5D1D"/>
<path d="M167.269 51.0582C168.151 53.343 168.835 55.8946 170.238 57.8547C170.459 58.0751 170.714 58.3651 170.957 58.481C171.282 58.597 171.549 58.655 172.013 58.5274C173.602 58.1331 175.736 57.0545 177.545 56.7181C180.839 56.3818 183.495 58.8058 186.244 59.8728C188.285 60.7543 189.572 60.7543 191.521 59.6061C194.107 58.0867 196.508 55.4423 199.802 55.048C205.705 54.2709 208.385 64.86 212.502 55.3379C212.316 57.7967 211.006 61.369 207.886 60.8935C205.392 60.5339 203.386 58.5622 201.333 57.8663C200.475 57.7388 199.721 58.0519 198.944 58.4114C191.962 63.2943 190.187 66.6114 181.581 61.2066C180.363 60.4991 179.354 59.8264 178.206 59.6409C177.487 59.6409 176.722 59.8612 175.991 60.0004C174.843 60.2672 173.509 60.7195 172.268 60.7891C167.524 60.9978 167.571 54.4101 167.281 51.0698L167.269 51.0582Z" fill="#AA5D1D"/>
<path d="M103.479 82.1065C103.479 74.243 112.27 71.1578 125.04 64.1409C126.501 63.3407 128.218 62.5056 130.155 61.6937C121.7 66.7853 113.28 72.6076 109.754 77.3165C108.095 79.5317 107.005 82.2805 106.309 85.1801C106.1 86.0383 104.964 86.2703 104.488 85.528C103.839 84.4958 103.479 83.3591 103.479 82.1065Z" fill="#EC6A56"/>
<path d="M103.56 81.2714C103.212 80.1812 106.216 74.127 110.067 72.4452C113.326 71.0186 104.256 83.4171 103.56 81.2714Z" fill="#FEFAFF"/>
<path d="M227.58 113.886C227.58 113.886 251.936 90.6892 257.735 95.3284C263.534 99.9677 268.185 101.997 268.185 101.997C268.185 101.997 262.212 95.8736 272.151 90.9675C282.091 86.0615 297.169 80.2508 304.128 90.9675C304.128 90.9675 322.685 73.2919 354 98.8079C354 98.8079 354.661 102.566 350.265 105.326C345.87 108.086 358.639 102.287 358.639 109.246C358.639 116.205 347.714 131.248 343.318 131.271C338.922 131.294 334.283 130.123 334.283 130.123C334.283 130.123 335.222 137.209 329.644 140.561C324.065 143.913 310.159 154.27 299.604 156.115C292.089 157.425 269.959 153.111 257.816 150.501C253.409 149.562 249.048 148.437 244.745 147.126C229.749 142.556 217.373 136.05 227.591 113.886H227.58Z" fill="#8BC369" stroke="black" stroke-width="5.81712" stroke-linejoin="round"/>
<path d="M356.319 111.566C358.639 103.447 343.561 111.566 349.314 104.955C349.349 104.92 349.395 104.909 349.442 104.874C352.527 102.972 352.527 98.4948 349.558 96.4187C328.147 81.4686 308.767 87.1981 305.287 92.9972C304.267 94.7022 301.124 90.6428 299.488 89.5178C293.237 85.2264 283.889 87.2793 276.559 91.2459C272.673 93.3452 273.068 99.0283 277.231 100.513C283.309 102.67 291.694 103.215 301.298 103.215C318.011 103.215 330.711 116.704 337.89 126.818C338.818 128.128 340.314 128.917 341.926 128.952C342.123 128.952 342.32 128.952 342.518 128.952C346.809 128.94 354.545 117.748 356.319 111.554V111.566Z" fill="#BAF792"/>
<path d="M131.06 106.555C131.06 106.555 106.703 83.3591 100.904 87.9984C95.1051 92.6376 90.4543 94.6673 90.4543 94.6673C90.4543 94.6673 96.4273 88.5435 86.4877 83.6374C76.548 78.7314 61.4704 72.9207 54.5115 83.6374C54.5115 83.6374 35.9544 65.9618 4.63927 91.4778C4.63927 91.4778 3.97818 95.2356 8.37389 97.996C12.7696 100.756 0 94.9573 0 101.916C0 108.875 10.9255 123.918 15.3212 123.941C19.7169 123.964 24.3562 122.793 24.3562 122.793C24.3562 122.793 23.4167 129.879 28.9955 133.231C34.5742 136.583 48.4804 146.94 59.0348 148.784C66.5504 150.095 88.6797 145.781 100.823 143.171C105.23 142.231 109.591 141.106 113.894 139.796C128.891 135.226 141.266 128.72 131.048 106.555H131.06Z" fill="#8BC369" stroke="black" stroke-width="5.81712" stroke-linejoin="round"/>
<path d="M107.492 101.151C107.492 101.151 107.538 101.174 107.562 101.174C113.071 103.273 116.921 95.6184 111.934 92.4753C107.399 89.6105 103.201 87.894 101.148 89.5293C97.7842 92.2201 93.7017 95.4908 91.8692 96.4882C91.3936 96.7434 88.3897 95.3284 90.7789 92.8812C92.4027 91.2111 90.1526 88.0563 83.7504 84.89C75.5621 80.8423 65.4021 76.9105 58.188 82.3384C55.8916 84.0666 52.7833 84.3333 50.2201 83.0227C43.1568 79.4041 28.1487 75.7043 7.42278 91.9185C6.59931 92.568 6.46013 93.7627 7.10963 94.5977C7.42278 95.0037 10.1368 96.6158 10.6123 97.1029C11.401 97.9148 10.8094 99.2486 9.68442 99.1906C6.85447 99.063 1.41492 98.5991 1.41492 102.276C1.41492 105.164 4.0477 108.898 6.71529 112.807C7.19081 113.503 7.82871 114.071 8.5826 114.442C17.4784 118.745 26.1538 119.081 45.0241 109.977C75.2258 95.398 102.934 100.165 106.715 100.919C106.982 100.977 107.237 101.046 107.492 101.139V101.151Z" fill="#BAF792"/>
<path d="M81.4425 356.288C81.4425 356.288 71.0041 402.68 46.6479 395.722C31.6399 391.43 23.8923 339.946 28.1024 323.871" fill="#83E2C9"/>
<path d="M81.4425 356.288C81.4425 356.288 71.0041 402.68 46.6479 395.722C31.6399 391.43 23.8923 339.946 28.1024 323.871" stroke="black" stroke-width="5.81712" stroke-miterlimit="10" stroke-linecap="round"/>
<path d="M347.621 241.466C359.428 296.766 351.355 333.683 211.087 360.022C177.023 366.424 141.985 366.506 108.072 359.35C46.2188 346.302 2.00647 314.534 2.00647 264.082C2.00647 195.224 56.5179 116.785 174.819 116.785C270.261 116.785 333.251 174.126 347.632 241.466H347.621Z" fill="#83E2C9" stroke="black" stroke-width="5.81712" stroke-miterlimit="10"/>
<path d="M227.301 129.184C240.929 147.207 299.488 155.639 318.045 258.863C322.546 283.903 256.018 326.051 236.858 345.849C342.019 324.764 353.339 301.382 342.402 242.625C332.729 190.654 292.773 144.354 227.301 129.184Z" fill="#66D1BD"/>
<path d="M29.2506 191.593C29.2506 191.593 8.37388 145.201 19.9721 134.762C31.5703 124.324 61.3892 129.3 74.9011 138.996" fill="#83E2C9"/>
<path d="M29.2506 191.593C29.2506 191.593 8.37388 145.201 19.9721 134.762C31.5703 124.324 61.3892 129.3 74.9011 138.996" stroke="black" stroke-width="5.81712" stroke-miterlimit="10" stroke-linecap="round"/>
<path d="M228.774 349.329C228.774 349.329 239.213 395.721 263.569 388.763C278.577 384.471 286.324 332.987 282.114 316.912" fill="#83E2C9"/>
<path d="M228.774 349.329C228.774 349.329 239.213 395.721 263.569 388.763C278.577 384.471 286.324 332.987 282.114 316.912" stroke="black" stroke-width="5.81712" stroke-miterlimit="10" stroke-linecap="round"/>
<path d="M294.42 326.643C294.42 326.643 302.979 364.708 322.963 359.002C335.269 355.487 341.636 313.247 338.18 300.048" fill="#66D1BD"/>
<path d="M294.42 326.643C294.42 326.643 302.979 364.708 322.963 359.002C335.269 355.487 341.636 313.247 338.18 300.048" stroke="black" stroke-width="5.81712" stroke-miterlimit="10" stroke-linecap="round"/>
<path d="M296.392 195.073C296.392 195.073 317.268 148.68 305.67 138.242C294.072 127.803 264.253 132.779 250.741 142.475" fill="#83E2C9"/>
<path d="M296.392 195.073C296.392 195.073 317.268 148.68 305.67 138.242C294.072 127.803 264.253 132.779 250.741 142.475" stroke="black" stroke-width="5.81712" stroke-miterlimit="10" stroke-linecap="round"/>
<path d="M283.68 159.06C283.68 155.859 280.05 156.741 275.561 156.741C271.073 156.741 267.443 158.179 267.443 161.38C267.443 164.581 271.548 172.665 275.561 170.659C280.201 168.339 283.68 162.262 283.68 159.06Z" fill="#AD613B"/>
<path d="M37.2302 158.167C34.2727 159.408 36.4995 162.412 38.2392 166.553C39.979 170.693 42.7161 173.477 45.6621 172.236C48.608 170.995 54.4651 164.071 51.0668 161.148C47.1234 157.773 40.1761 156.926 37.2302 158.167Z" fill="#AD613B"/>
<path d="M164.706 147.01C166.318 137.511 156.146 138.485 144.142 136.444C132.138 134.414 121.688 137.024 120.088 146.523C118.476 156.022 125.411 181.851 137.149 177.722C150.73 172.943 163.094 156.509 164.706 147.01Z" fill="#59D1AF"/>
<path d="M169.496 167.713C167.953 164.778 163.732 168.026 157.991 171.03C152.249 174.034 148.283 177.792 149.825 180.726C151.368 183.66 160.507 188.323 164.683 183.799C169.508 178.557 171.038 170.647 169.508 167.713H169.496Z" fill="#59D1AF"/>
<path d="M180.259 143.658C173.497 144.841 168.382 147.822 169.171 152.299C169.96 156.776 178.137 166.994 183.68 163.131C190.106 158.655 187.021 142.475 180.259 143.658Z" fill="#59D1AF"/>
<path d="M50.4405 352.982C46.8914 349.816 44.8965 353.713 41.2199 357.448C37.5433 361.182 36.1631 365.636 39.7122 368.802C43.2612 371.968 55.5901 376.538 56.6455 371.215C57.8749 365.056 53.9895 356.149 50.4405 352.971V352.982Z" fill="#59D1AF"/>
<path d="M60.8557 361.588C59.7539 364.325 59.7771 366.97 61.8184 367.909C63.8597 368.848 70.0183 368.709 69.7284 365.671C69.392 362.156 61.9692 358.839 60.8673 361.576L60.8557 361.588Z" fill="#59D1AF"/>
<path d="M267.454 332.917C265.088 328.788 261.957 331.85 257.294 334.228C252.632 336.605 249.895 340.386 252.261 344.515C254.627 348.644 264.856 356.891 267.559 352.182C270.678 346.731 269.82 337.046 267.466 332.917H267.454Z" fill="#59D1AF"/>
<path d="M270.377 333.451C273.079 334.657 275.724 334.727 276.733 332.72C277.742 330.714 277.834 324.555 274.784 324.741C271.258 324.949 267.674 332.245 270.377 333.451Z" fill="#59D1AF"/>
<path d="M96.8333 115.034C96.8333 115.034 93.3538 102.276 174.541 97.6364C245.325 93.5887 242.97 98.7963 244.13 103.436C245.29 108.075 195.418 145.189 175.701 145.189C155.984 145.189 157.074 135.736 150.185 134.751C142.066 133.591 140.686 144.725 129.169 145.189C100.313 146.349 96.8333 115.034 96.8333 115.034Z" fill="#BAF792" stroke="black" stroke-width="5.81712" stroke-linejoin="round"/>
<path d="M50.1274 399.201C50.1274 402.402 46.4971 405 42.0086 405C37.5201 405 33.8899 402.402 33.8899 399.201C33.8899 396 37.5201 389.922 42.0086 389.922C46.4971 389.922 50.1274 396 50.1274 399.201Z" fill="#F4F4F4" stroke="black" stroke-width="5.81712" stroke-linecap="round" stroke-linejoin="round"/>
<path d="M66.3647 400.535C66.3647 402.994 63.2448 405 59.4058 405C55.5668 405 52.4469 403.005 52.4469 400.535C52.4469 398.064 55.5668 393.402 59.4058 393.402C63.2448 393.402 66.3647 398.076 66.3647 400.535Z" fill="#F4F4F4" stroke="black" stroke-width="5.81712" stroke-linecap="round" stroke-linejoin="round"/>
<path d="M252.922 390.815C252.922 393.529 250.405 395.721 247.297 395.721C244.188 395.721 241.671 393.529 241.671 390.815C241.671 388.101 244.188 382.963 247.297 382.963C250.405 382.963 252.922 388.101 252.922 390.815Z" fill="#F4F4F4" stroke="black" stroke-width="5.81712" stroke-linecap="round" stroke-linejoin="round"/>
<path d="M275.132 392.242C275.132 395.443 271.502 398.041 267.013 398.041C262.525 398.041 258.895 395.443 258.895 392.242C258.895 389.041 262.525 382.963 267.013 382.963C271.502 382.963 275.132 389.041 275.132 392.242Z" fill="#F4F4F4" stroke="black" stroke-width="5.81712" stroke-linecap="round" stroke-linejoin="round"/>
<path d="M321.525 360.927C321.525 364.128 317.895 366.726 313.406 366.726C308.918 366.726 305.287 364.128 305.287 360.927C305.287 357.726 308.918 351.648 313.406 351.648C317.895 351.648 321.525 357.726 321.525 360.927Z" fill="#F4F4F4" stroke="black" stroke-width="5.81712" stroke-linecap="round" stroke-linejoin="round"/>
<path d="M334.283 357.181C334.283 359.895 332.462 362.087 330.224 362.087C327.985 362.087 326.164 359.895 326.164 357.181C326.164 354.467 327.985 349.329 330.224 349.329C332.462 349.329 334.283 354.467 334.283 357.181Z" fill="#F4F4F4" stroke="black" stroke-width="5.81712" stroke-linecap="round" stroke-linejoin="round"/>
<path d="M44.9081 254.224C47.7906 254.224 50.1273 251.887 50.1273 249.004C50.1273 246.122 47.7906 243.785 44.9081 243.785C42.0257 243.785 39.689 246.122 39.689 249.004C39.689 251.887 42.0257 254.224 44.9081 254.224Z" fill="black"/>
<path d="M95.259 187.268C102.544 177.519 102.003 164.798 94.0496 158.854C86.0964 152.911 73.7432 155.996 66.4579 165.746C59.1726 175.495 59.7141 188.216 67.6673 194.159C75.6205 200.102 87.9737 197.017 95.259 187.268Z" fill="#AEF4E0"/>
<path d="M59.7215 204.504C62.5053 200.778 62.2995 195.918 59.2619 193.648C56.2243 191.379 51.5051 192.558 48.7214 196.283C45.9376 200.009 46.1434 204.869 49.181 207.139C52.2186 209.408 56.9378 208.229 59.7215 204.504Z" fill="#AEF4E0"/>
<path d="M233.959 254.224C236.841 254.224 239.178 251.887 239.178 249.004C239.178 246.122 236.841 243.785 233.959 243.785C231.076 243.785 228.739 246.122 228.739 249.004C228.739 251.887 231.076 254.224 233.959 254.224Z" fill="black"/>
<path d="M72.164 263.502C72.999 248.448 90.7211 242.625 135.954 258.863C193.945 237.986 208.756 253.087 207.863 266.982C205.334 306.404 70.0995 300.837 72.164 263.502Z" fill="#116B1C" stroke="black" stroke-width="3.49027" stroke-linejoin="round"/>
<path d="M141.277 266.274C113.407 266.274 89.7815 270.716 81.4424 276.875C103.131 296.812 183.263 298.621 200.904 276.724C192.391 270.647 168.916 266.274 141.277 266.274Z" fill="#683512"/>
<path d="M88.4014 253.064C88.4014 249.863 92.0316 250.744 96.5201 250.744C101.009 250.744 104.639 252.182 104.639 255.383C104.639 258.585 100.533 266.668 96.5201 264.662C91.8808 262.342 88.4014 256.265 88.4014 253.064Z" fill="#F4F4F4"/>
<path d="M183.506 253.064C183.506 249.863 179.876 250.744 175.388 250.744C170.899 250.744 167.269 252.182 167.269 255.383C167.269 258.585 171.375 266.668 175.388 264.662C180.027 262.342 183.506 256.265 183.506 253.064Z" fill="#F4F4F4"/>
<path d="M317.361 220.345C313.87 214.221 308.686 217.62 302.585 222.143C284.364 235.655 303.594 264.697 317.767 248.726C323.844 241.883 320.864 226.458 317.361 220.345Z" fill="#59D1AF"/>
<path d="M315.505 258.816C314.253 261.913 317.349 262.992 321.2 264.105C332.694 267.434 337.739 251.718 326.64 250.663C321.873 250.211 316.77 255.731 315.517 258.816H315.505Z" fill="#59D1AF"/>
<path d="M317.756 248.726C323.833 241.883 320.852 226.458 317.35 220.345C314.821 215.915 311.411 216.483 307.41 218.838C310.82 228.093 313.847 238.473 316.341 250.164C316.816 249.735 317.292 249.26 317.756 248.726Z" fill="#45BA96"/>
<path d="M326.628 250.663C323.241 250.338 319.681 253.041 317.454 255.743C317.651 256.775 317.848 257.807 318.045 258.874C318.289 260.255 318.359 261.681 318.266 263.154C319.136 263.502 320.133 263.804 321.2 264.117C332.694 267.446 337.739 251.73 326.64 250.675L326.628 250.663Z" fill="#45BA96"/>
</svg>
