<?xml version="1.0" encoding="UTF-8"?>
<svg id="Layer_1" data-name="Layer 1" xmlns="http://www.w3.org/2000/svg" viewBox="0 0 360 441.85">
  <defs>
    <style>
      .cls-1 {
        stroke: #313131;
        stroke-miterlimit: 10;
      }

      .cls-1, .cls-2, .cls-3, .cls-4 {
        stroke-width: 5.65px;
      }

      .cls-1, .cls-5 {
        fill: #fed3da;
      }

      .cls-6 {
        stroke-width: 3.75px;
      }

      .cls-6, .cls-2, .cls-3, .cls-4, .cls-7 {
        stroke: #000;
        stroke-linecap: round;
        stroke-linejoin: round;
      }

      .cls-2 {
        fill: #fed4dc;
      }

      .cls-3 {
        fill: #f6c9d1;
      }

      .cls-4 {
        fill: #ffd4db;
      }

      .cls-8 {
        opacity: .16;
      }

      .cls-8, .cls-9, .cls-10, .cls-11, .cls-5, .cls-12 {
        stroke-width: 0px;
      }

      .cls-8, .cls-9, .cls-11 {
        fill: #313131;
      }

      .cls-7 {
        fill: none;
        stroke-width: 2.82px;
      }

      .cls-9 {
        opacity: .09;
      }

      .cls-12 {
        fill: #f5eef4;
      }
    </style>
  </defs>
  <g>
    <path class="cls-5" d="m263.23,108.79c-.96-4.38.98-8.83,2.9-12.89,8.62-18.23,17.83-36.31,29.87-52.49,12.04-16.17,27.11-30.46,45.26-39.25,7.43,26.8-1.15,55.24-10.88,81.29-2.61,7-5.33,14.01-9.25,20.36-3.73,6.06-8.48,11.42-13.2,16.75-4.22,4.76-8.48,9.56-13.53,13.43-3.29,2.52-7.62,4.71-11.45,3.12-1.69-.7-3.02-2.05-4.3-3.36-4.62-4.74-9.29-9.54-12.57-15.29s-5.07-12.63-3.47-19.05c1.26-5.06,4.47-9.38,7.6-13.55"/>
    <path class="cls-10" d="m267.32,107.66c-.02-.1-.12-.82-.05-.19-.02-.22-.03-.44-.04-.66-.02-.51,0-1.02.04-1.54.07-.9.06-.37.02-.19.05-.29.11-.58.18-.87.13-.58.3-1.16.48-1.73.66-2.05,1.31-3.33,2.33-5.48,1.93-4.08,3.9-8.14,5.91-12.17,4.03-8.06,8.3-16.01,13-23.71,2.39-3.91,4.88-7.74,7.52-11.49,1.24-1.77,2.52-3.52,3.82-5.24.11-.14.89-1.16.47-.62.3-.38.6-.76.9-1.14.64-.81,1.29-1.62,1.95-2.43,5.23-6.36,10.95-12.33,17.2-17.68.84-.72,1.69-1.42,2.54-2.12.48-.39.97-.78,1.46-1.16,0,0,.54-.42.22-.18-.34.26.48-.37.56-.42,1.81-1.37,3.67-2.69,5.56-3.94,3.85-2.56,7.86-4.85,12.01-6.87l-6.22-2.53c1.94,7.07,2.66,13.08,2.66,20.47,0,3.49-.2,6.98-.56,10.46s-.78,6.15-1.48,9.79c-2.73,14.16-7.49,27.87-12.63,41.32-1.32,3.45-2.3,5.93-3.81,9.12s-3.17,6.24-5.11,9.15c-3.67,5.53-8.17,10.46-12.83,15.68-2.32,2.6-4.68,5.18-7.2,7.58-1.26,1.2-2.56,2.35-3.92,3.44-.12.09-.88.67-.36.28-.33.24-.66.48-1,.71-.74.5-1.52.96-2.32,1.36-.16.08-.98.42-.3.16-.37.15-.76.28-1.14.38s-.77.2-1.16.26c.96-.14-.3-.04-.42-.03-.75.04-.26.01-.02.05-.38-.06-.77-.16-1.13-.29.78.28-.42-.26-.48-.29-.41-.29-.46-.31-.17-.07-.22-.18-.43-.36-.64-.55-2.47-2.24-4.76-4.78-6.99-7.26-.59-.66-1.17-1.32-1.74-2-.28-.34-.57-.68-.84-1.02-.18-.23-.37-.46-.55-.69.21.28.16.22-.14-.19-1.14-1.53-2.21-3.11-3.15-4.76-1.02-1.8-1.53-2.87-2.1-4.51-.29-.82-.54-1.65-.75-2.49-.11-.42-.2-.84-.29-1.26-.03-.15-.28-1.76-.19-1-.1-.85-.15-1.71-.16-2.56,0-.43,0-.85.03-1.28,0-.16.19-1.76.07-1,.13-.85.33-1.69.57-2.52.12-.41.26-.82.4-1.23.1-.27.2-.54.31-.81-.15.35-.12.29.09-.17,1.68-3.41,3.87-6.46,6.14-9.49,1.34-1.78.34-4.81-1.52-5.8-2.23-1.18-4.37-.38-5.8,1.52-4.65,6.19-8.82,12.74-8.77,20.78.04,7.61,3.29,14.87,7.79,20.86,2.34,3.12,4.92,6.03,7.61,8.84s5.26,5.89,9,7.13c7.77,2.57,15.18-3.84,20.34-8.81,5.43-5.23,10.46-11.05,15.22-16.89s8.94-12.34,12.06-19.42c3.11-7.08,5.75-14.38,8.28-21.68s4.75-14.51,6.51-21.93c4-16.9,5.39-34.65.75-51.57-.77-2.8-3.8-3.71-6.22-2.53-15.36,7.48-28.66,18.82-39.67,31.79-11.98,14.13-21.42,30.14-29.76,46.62-2.38,4.71-4.68,9.46-6.94,14.23-2.54,5.36-4.81,10.73-3.62,16.77.43,2.18,3.15,3.63,5.21,2.96,2.32-.75,3.42-2.88,2.96-5.21h0Z"/>
  </g>
  <g>
    <g>
      <path class="cls-11" d="m273.91,120.47c8-28.8,25.17-56.2,45.66-77.96,1.32,6.96-2.81,14.65-4.87,21.42-6.54,21.46-13.76,43.77-29.63,59.62-1.55,1.55-4.92,2.51-5.24.34-.14-.96.63-1.79,1.31-2.49,7.33-7.45,11.16-17.57,14.79-27.37,4.48-12.09,8.96-24.18,13.44-36.28"/>
      <path class="cls-11" d="m277.99,121.6c1.56-5.58,3.43-11.07,5.6-16.45,1.03-2.55,1.97-4.72,3.33-7.62,1.25-2.66,2.56-5.29,3.93-7.89,2.76-5.22,5.76-10.3,8.97-15.25,1.61-2.47,3.27-4.91,4.98-7.31.83-1.17,1.68-2.33,2.54-3.48.43-.58.86-1.15,1.29-1.72.17-.23.35-.46.52-.68.31-.4.35-.45.12-.16.13-.17.26-.34.4-.51,4.06-5.2,8.37-10.21,12.89-15.02l-7.08-1.87c.21,1.23.03-.48.04.26,0,.33.05.67.06,1,.02.61,0,1.21-.05,1.82-.03.34-.06.68-.1,1.02.03-.19.13-.74-.04.1-.13.69-.27,1.38-.44,2.06-.66,2.65-1.62,5.22-2.56,7.78-1.81,4.91-3.23,9.94-4.83,14.91s-3.29,9.9-5.19,14.76c-.47,1.21-.96,2.41-1.46,3.61-.3.72.39-.9-.13.31-.11.25-.22.5-.32.75-.27.62-.55,1.25-.83,1.87-1.06,2.35-2.19,4.67-3.39,6.95-2.39,4.52-5.1,8.88-8.2,12.95.43-.57-.09.12-.2.26-.21.26-.42.53-.63.79-.38.47-.77.94-1.16,1.4-.83.98-1.69,1.93-2.57,2.87-.46.49-.99.94-1.42,1.46-.52.63.23-.22.23-.14,0,.1-.52.32-.61.38-.74.49.09-.05.09-.01,0,.03-.56.17-.53.16-.67.23.22-.03.35-.03-.61.04.77.21,1.05.37.87.53,1.31,1.39,1.31,2.38,0,.08.06,1.28-.34,1.28.23,0,1.1-1.16,1.23-1.3.9-.96,1.74-1.97,2.54-3.01,1.76-2.26,3.34-4.62,4.73-7.12,2.69-4.85,4.76-10.03,6.72-15.21,4.95-13.11,9.74-26.28,14.61-39.42.77-2.08-.86-4.73-2.96-5.21-2.4-.55-4.38.73-5.21,2.96-4.67,12.62-9.32,25.24-14.02,37.85-.47,1.25-.93,2.49-1.42,3.74-.25.65-.51,1.31-.77,1.96-.13.33-.26.65-.4.98,0,0-.51,1.23-.22.54-1.12,2.63-2.35,5.23-3.75,7.73-.64,1.15-1.32,2.28-2.05,3.38-.38.58-.77,1.15-1.18,1.71-.01.02-.82,1.11-.33.47-.25.33-.52.65-.78.97-2.28,2.74-5.45,5.05-4.63,9.08.74,3.68,4.78,5,8.03,4.03,2.76-.82,4.65-2.79,6.54-4.85,3.87-4.23,7.29-8.9,10.27-13.8,5.84-9.63,10.03-20.21,13.62-30.86,2.01-5.97,3.64-12.08,5.78-18,2.37-6.55,4.92-13.06,3.68-20.15-.55-3.16-5.03-4.05-7.08-1.87-16.76,17.84-30.7,38.41-40.18,61.02-2.57,6.13-4.78,12.41-6.57,18.82-.6,2.13.73,4.7,2.96,5.21s4.57-.67,5.21-2.96h0Z"/>
    </g>
    <path class="cls-11" d="m293.29,81.52c-6.41,10.61-11.53,22-15.26,33.82-.67,2.11.78,4.72,2.96,5.21,2.31.53,4.5-.69,5.21-2.96,3.57-11.32,8.16-21.47,14.4-31.8,1.15-1.9.48-4.74-1.52-5.8s-4.57-.51-5.8,1.52h0Z"/>
  </g>
  <g>
    <path class="cls-5" d="m125.31,380.49c-4.07,11.89-6.85,24.23-8.26,36.72-.52,4.59-.74,9.63,1.94,13.38,2.67,3.73,7.47,5.16,11.93,6.2,8.54,2,17.6,3.48,25.96.83s15.64-10.62,14.67-19.33c-.5-4.55-3.08-8.57-5.17-12.64-2.09-4.08-3.78-8.81-2.38-13.17"/>
    <path class="cls-11" d="m122.59,379.73c-3.59,10.55-6.19,21.42-7.72,32.46-.69,4.95-1.57,10.15-.39,15.09s4.71,8.31,9.23,10.22,9.44,2.82,14.21,3.57c5.52.86,11.09,1.17,16.61.07,8.73-1.73,17.21-8.08,19.41-17.03,1.38-5.63-.39-10.89-2.98-15.88-2.35-4.52-5.8-9.69-4.22-15.01,1.04-3.49-4.41-4.98-5.45-1.5-1.46,4.92.03,9.92,2.19,14.38,1.9,3.94,4.66,7.75,5.26,12.19.97,7.15-5.04,13.83-11.58,16.26-8.87,3.3-19.2,1.34-28.04-1.13-3.45-.96-7.15-2.45-8.68-5.96-1.68-3.85-.79-8.63-.28-12.63,1.45-11.43,4.16-22.71,7.87-33.6.49-1.44-.56-3.09-1.97-3.47-1.55-.43-2.98.52-3.47,1.97h0Z"/>
  </g>
  <path class="cls-8" d="m118.06,404.91s19.59-13.37,48.34.74l-2.09-21.29-40.54-7.42-5.71,27.98Z"/>
  <g>
    <path class="cls-5" d="m225.23,393.88c15.81,13.2,35.38,23.4,55.97,22.76,4.76-.15,9.49-.87,14.16-1.79,4.01-.79,8.19-1.82,11.2-4.58,5.17-4.74,5.04-13.56.83-19.17-4.21-5.61-11.49-8.26-18.5-8.43-7.26-.18-15.24,1.79-21.28-2.24"/>
    <path class="cls-11" d="m223.23,395.88c16.62,13.83,37.42,24.81,59.63,23.51,5.83-.34,11.9-1.18,17.52-2.82,4.85-1.41,9.35-4.16,11.46-8.94,1.92-4.36,1.95-9.47.19-13.89-1.88-4.71-5.55-8.43-10.05-10.72-5.16-2.62-10.83-3.38-16.56-3.15-5.43.22-11.56,1.22-16.39-1.9-3.06-1.98-5.9,2.91-2.85,4.88,8.59,5.54,19.02,1.04,28.32,3.38,4,1,7.84,2.99,10.44,6.27,1.22,1.54,1.92,3.18,2.37,5.02.38,1.59.49,3.59.22,5.07-.72,3.94-3.17,6.63-7.13,8.04-4.85,1.73-10.29,2.48-15.4,2.94-10.04.91-19.95-.81-29.33-4.42-10.38-3.99-19.92-10.19-28.44-17.28-1.17-.97-2.85-1.15-3.99,0-1,1-1.18,3.01,0,3.99h0Z"/>
  </g>
  <path class="cls-8" d="m249.02,409.18s-.69-14.11,29.43-24.96l-16.76-13.3-33.52,23.98,20.84,14.29Z"/>
  <path class="cls-1" d="m322.77,258.81c26.29-12.3,36.89-37.74,33.93-44.53-2.97-6.79-41.37-.52-41.37-.52l7.44,45.05Z"/>
  <path class="cls-4" d="m95.35,359.63s-32.77-29.5-31.46-51.78c1.31-22.29,23.1-144.52,32.12-156s28.29-43.04,54.52-56.57c26.24-13.53,74.2-3.69,74.2-3.69l44.68,26.65s35.25,25.42,45.91,95.51c10.66,70.1,14.35,65.18-2.05,119.29,0,0-27.23,50.95-96.13,58.54-68.9,7.58-97.94-14.08-107.47-20.8-9.53-6.72-14.32-11.15-14.32-11.15Z"/>
  <path class="cls-4" d="m149.53,226.79s-51.23-24.96-58.95-1.7c-6.66,20.07,47.07,44.1,47.07,44.1"/>
  <path class="cls-3" d="m127,143.34S22.05,122.97,3.36,26.64c0,0-.65-4.43-.51-5.02s1.95-1.69,1.95-1.69c99.44,1.92,137.55,103.52,137.55,103.52"/>
  <path class="cls-11" d="m118.5,126.42s-.24-.04-.68-.14c-7.63-1.6-76.68-17.76-89.56-81.09,0,0-.63-6.8-.53-7.22s7.6,1.57,7.6,1.57c61.48,10.33,87.33,57.59,93.23,70.41.74,1.62,1.26,3.31,1.55,5.06l1.07,6.39-7.68-3.53,5.79,6.67-8.92-3.54,6.47,6.81"/>
  <path class="cls-2" d="m212.13,75.68s11.83,2.42,9.95,9.68-3.76,11.29-10.22,11.02-20.17-4.84-17.75-26.35c2.42-21.51,23.93-17.75,23.93-17.75,0,0,30.12,1.08,44.37,22.86,14.25,21.78,15.06,44.64,2.42,58.35-12.64,13.71-20.17,13.44-20.17,13.44,0,0-33.07,10.49-51.09-12.91-18.02-23.39-6.18-48.4-.27-51.63"/>
  <path class="cls-12" d="m137.1,373.54c-14.64-12.78-19.37-34.25-16.13-53.41,3.24-19.16,13.33-36.45,24.43-52.4,12.43-17.87,26.36-34.7,41.59-50.24,7.17-7.32,14.8-14.47,24.06-18.85,11.17-5.27,24.36-6.09,36.09-2.24,11.89,3.91,21.93,12.32,29.58,22.23,7.65,9.91,13.11,21.31,18.08,32.8,2.8,6.49,5.47,13.03,7.99,19.63,4.2,11,8.07,22.8,5.83,34.36-1.57,8.1-6.02,15.33-10.57,22.22-8.56,12.96-17.9,25.63-29.8,35.6-25.72,21.55-61.13,28.42-94.62,26.48-13.6-.79-29.11-4.23-35.44-16.3"/>
  <circle class="cls-6" cx="191.03" cy="189.57" r="4.72"/>
  <circle class="cls-6" cx="265.27" cy="187.63" r="4.72"/>
  <path class="cls-10" d="m207.53,217.14c14.9,2.96,30.22,2.89,45.08-.24,1.49-.31,2.36-2.07,1.97-3.47-.43-1.55-1.98-2.29-3.47-1.97-13.83,2.91-28.22,2.99-42.08.24-1.49-.3-3.05.43-3.47,1.97-.38,1.39.47,3.17,1.97,3.47h0Z"/>
  <path class="cls-7" d="m274.16,105.44s33.04-66.16,55.89-79.72"/>
  <path class="cls-7" d="m131.17,121.4S118.9,50.94,22.69,35.64"/>
  <path class="cls-9" d="m67.4,306.72c0,34.36,61.39,70.82,61.39,70.82,71.5,24.33,98.77,9.58,150.37-10.32,51.6-19.9,48.65-97.3,48.65-97.3,0,0,2.21,53.81-117.2,50.86-119.41-2.95-134.89-61.92-134.89-61.92l-8.32,47.86Z"/>
</svg>